<svg xmlns="http://www.w3.org/2000/svg" width="1024" height="1024" viewBox="0 0 1024 1024"><path fill="#ff3c00" d="M484.2 656.4q0 16.5-8.2 27.7a49 49 0 0 1-23.6 16.8 105 105 0 0 1-36.4 5.7q-18 0-31.2-2.8a91 91 0 0 1-23.1-8v-24q10.6 5 25 9.4 14.7 4.2 29.9 4.2 22.3 0 32.3-7.2t10-19.6q0-7-4-12.5a40 40 0 0 0-13.3-10.5q-9.4-5.1-26.1-11.2Q399 618 387 611.9t-18.5-15.1-6.5-23.3q0-21.8 17.6-33.5a83 83 0 0 1 46.4-11.7 132 132 0 0 1 54.5 11.3l-8.8 20.9q-10.6-4.5-22.8-7.7-12-3-24.6-3.1a53 53 0 0 0-27.7 6q-9.6 6-9.7 16.3 0 8 4.5 13.1a42 42 0 0 0 14.4 9.8q9.9 4.5 26 10.6t28 12.4a52 52 0 0 1 18 15.3q6.4 9 6.4 23.2m108.1-128A70 70 0 0 1 630 538a63 63 0 0 1 24 27.2 94 94 0 0 1 8.3 40.9v16.1H543.5q.6 30.3 15.1 46.1t41.1 15.9a126 126 0 0 0 55-11.8v23a128 128 0 0 1-56 11q-24.9 0-43.3-10a70 70 0 0 1-28.6-29.8 103 103 0 0 1-10.2-48q0-27.7 9.3-48t26.4-31.4a72 72 0 0 1 40-11m-.3 21.3q-20.9 0-33.2 13.6a64 64 0 0 0-14.8 38.2h91a75 75 0 0 0-4.8-27.1q-4.5-11.7-14-18.2a42 42 0 0 0-24.2-6.5m-14.9-92.3h26.5q4 7 11 16 7 8.8 15 17.3 7.8 8.4 13.9 14.6v3.4H625q-8.5-5.4-17.4-13.5-9-8-17.5-16.6a423 423 0 0 1-17.1 16.5q-8.7 8-17.2 13.6h-18v-3.4q6-6.3 13.7-14.8 7.5-8.4 14.6-17.2t11-15.9M639.7 401.8q3.6-4.3 7.7-7.1l11.4 14.3q-4 2.9-7 6.2-6.3 7.5-4.7 16.6t10.8 21.8l45.7 39.2-12 14-80-68.7 10.3-12 17.5 12.6a40 40 0 0 1-6.1-20.3q0-9.3 6.4-16.6m111.7-50.4q3.5 3 6.9 6.4l-43.8 51q14 10.5 25.2 10 11.1-.3 19-9.5 5-5.8 7.4-12t3.4-14.8l13.6 1.1a58 58 0 0 1-14 36.5 43 43 0 0 1-33.2 16.7 59 59 0 0 1-38-16.5 75 75 0 0 1-18.7-23A46 46 0 0 1 674 373q1-12.2 9.7-22.4a39 39 0 0 1 31.4-15.5 59 59 0 0 1 36.3 16.4m-15 11.1-1-.8a39 39 0 0 0-22-10.8q-10.3-.6-18.4 8.8-14.7 17.1 9.2 40.3Zm86-93.8 6.9 6.4-43.8 51q14 10.5 25.2 10t19-9.5q4.9-5.8 7.4-12 2.5-6.4 3.4-14.8l13.6 1.1a58 58 0 0 1-14 36.5 43 43 0 0 1-33.2 16.7 59 59 0 0 1-38-16.5 75 75 0 0 1-18.7-23 46 46 0 0 1-5.2-24.5q1-12 9.7-22.3a39 39 0 0 1 31.4-15.5 59 59 0 0 1 36.3 16.4m-15 11-1-.7a39 39 0 0 0-22-10.8q-10.3-.6-18.4 8.8-14.7 17 9.2 40.3Zm-100.7-26.3a11 11 0 0 1 7.7-4 11 11 0 0 1 8.3 2.8 11 11 0 0 1 4 7.8 11 11 0 0 1-2.7 8.3 11 11 0 0 1-16.2 1.4 11.3 11.3 0 0 1-1-16.2m27.2-31.7a11 11 0 0 1 16.2-1.4 11.3 11.3 0 0 1 1 16.2 11 11 0 0 1-7.7 4 11 11 0 0 1-8.3-2.7 11 11 0 0 1-4-7.8 11 11 0 0 1 2.8-8.3m165.5 46.7q-6.6 7.7-15.1 8.2t-16.8-6.6L771 187.2l10.3-15.4 97.8 84q3.3 2.8 5.8 3 2.5 0 4.8-2.6 2.6-3 3.5-6l12.9 4.8a30 30 0 0 1-6.8 13.4M138 261.2l-6 6.3-46.5-41q-9.8 12.6-9.5 23 .2 10.3 8.5 17.6 5.3 4.7 11 7a52 52 0 0 0 13.6 3.4l-1.2 12.5a54 54 0 0 1-33.5-13.3 39 39 0 0 1-15-31A55 55 0 0 1 75.2 211 69 69 0 0 1 96.6 194a42 42 0 0 1 22.6-4.5q11.3 1 20.5 9.3a36 36 0 0 1 13.9 29.2q-.7 16.4-15.6 33.2m-10-14 .7-.8q9.5-10.8 10.2-20.3.8-9.5-7.8-17-15.6-13.8-37.3 8Zm96.3 26.3q10 8.8 10.3 19.7t-8.8 21.3l-46.1 52.2-12.8-11.2 44.6-50.5q6.8-7.7 6.8-13.5-.1-5.7-5.8-10.7a22 22 0 0 0-13.2-5.7 46 46 0 0 0-16.7 2.2L137 329l-12.7-11.3 64.4-72.8 11 9.6-8.5 11.8q9-2.4 17.7-.6a33 33 0 0 1 15.5 7.8m45.3 43 12.7 11.2-64.3 72.8-12.8-11.2Zm37.1-29.5q4 3.4 4.3 8.2t-3 8.4a11 11 0 0 1-8 4q-4.5.2-8.6-3.4-3.8-3.4-4.2-8a11 11 0 0 1 3-8.3 11.3 11.3 0 0 1 16.5-1m64.1 104.3-6.4 14.8a52 52 0 0 1-10.7-6.3q-5.4-3.9-12.5-10.3 7.7 17.2-3.4 29.8a31 31 0 0 1-23.2 11.2q-13.5.3-26.5-11a40 40 0 0 1-8-9.6q-2.6-.4-5.3.6a11 11 0 0 0-4.3 3q-5.2 6 4.3 14.4l11.6 10.2q7.3 6.4 10.7 14.1t2.4 15a24 24 0 0 1-6 13Q284 491 270.3 489a62 62 0 0 1-30.5-16.8 77 77 0 0 1-16.5-18.8q-4.6-8.6-3.3-15.9 1.4-7.5 8-15l11.5 10.2a17 17 0 0 0-4.5 8.4q-.6 4 2.6 9.1 3 5.1 11 12 11.5 10.2 18.8 11.7t12.5-4.1q4.5-5.2 3-11.2-1.7-6-8.5-12.2l-11.5-10.1q-9.3-8.2-10.6-16.3t4-14.1q3.2-3.6 8.2-5.1t11.2-.7q-3.5-9-2-16.5 1.3-7.5 7.5-14.6a32 32 0 0 1 33.4-10q9.3 2.5 17.1 9.4 8.5 7.7 15 12 6.5 4.4 11.4 6.5t12.7 4.4m-47.1-13.8q-7.2-6.3-15.1-5.3a23 23 0 0 0-14.4 8.3 23 23 0 0 0-6.5 15.5q0 8 7.3 14.5 7.4 6.6 15.3 5.7 7.7-.7 14.7-8.7 14.3-16.2-1.3-30m81.5 119.8q-2.8 3.2-6 6.2l-46.5-41q-9.8 12.8-9.5 23 .2 10.4 8.5 17.7 5.3 4.6 11 7t13.6 3.4L375 526a54 54 0 0 1-33.5-13.4 39 39 0 0 1-15-30.9 55 55 0 0 1 15.8-34.9 69 69 0 0 1 21.4-16.8 42 42 0 0 1 22.6-4.5q11.3 1 20.5 9.2a36 36 0 0 1 13.9 29.2q-.7 16.4-15.6 33.3m-10-14 .7-.9a36 36 0 0 0 10.3-20.2q.6-9.5-7.9-17-15.6-13.8-37.3 7.9ZM658 700l7.7 9.3a39 39 0 0 1-7.8 5q-4.5 2.3-11.2 5 14.1.6 18.8 12.3a23 23 0 0 1-.4 19.3q-4.3 9.2-16.3 14a30 30 0 0 1-9 2.1q-1.3 1.7-1.4 3.8-.3 2 .5 3.8 2.1 5.6 11 2l10.8-4.3q7-2.7 13-2.4a21 21 0 0 1 11 3.5q4.5 3 6.7 8.5 4 9.9-2 18.4a46 46 0 0 1-21.6 14.8q-10.9 4.3-18.2 4.6t-11.7-3.1-7.3-10.5l10.6-4.3q1.6 4.2 4.2 6 2.4 1.7 7 1.3 4.4-.3 11.7-3.3a35 35 0 0 0 14.2-8.7q3.5-4.5 1.4-9.7a9 9 0 0 0-6.5-5.8 19 19 0 0 0-11 1.6l-10.6 4.3q-8.7 3.4-14.5 1.5-6-1.9-8.1-7.4-1.4-3.5-.7-7.2.7-3.9 3.4-7.8-7.2-.6-11.8-4.1-4.5-3.5-7.2-10a24 24 0 0 1 4.6-25.8q4.8-5.4 12.1-8.3 8-3 13.1-6A50 50 0 0 0 658 700M632.8 727a14 14 0 0 0-8.7 8.3q-1.9 5.6.7 12.4 2.8 7 8.2 9.7t12.2 0q6.9-3 9-8.3 2-5.6-.9-12.9-6-15-20.5-9.2m107.7-14.1 2.2 6.1-43.2 17.3q5.2 10.9 12.2 14.2t14.7.2q4.9-2 8.4-5a39 39 0 0 0 6.8-8l8 5a40 40 0 0 1-20.3 18q-14.1 5.7-25.7-.5a41 41 0 0 1-18-22.2q-4.2-10.6-4-20.1 0-9.6 4.6-16.7 4.5-7.2 13.1-10.6a27 27 0 0 1 24.2.6q10.8 6 17 21.7m-12.8 2-.3-.8a27 27 0 0 0-10-13.7q-6.1-3.7-14.1-.5-14.5 5.8-7.3 27.6Zm82.8-30 2.2 6.2-43.2 17.2q5.3 11 12.2 14.2 7 3.3 14.7.3 5-2 8.5-5a39 39 0 0 0 6.8-8l8 5a40 40 0 0 1-20.3 18q-14.2 5.6-25.8-.5a41 41 0 0 1-18-22.3 52 52 0 0 1-4-20q0-9.6 4.6-16.7 4.5-7.2 13.1-10.6a27 27 0 0 1 24.3.6q10.7 6 17 21.7m-12.7 2-.3-.7a27 27 0 0 0-10.1-13.7q-6.1-3.8-14-.5-14.6 5.7-7.4 27.6Zm50.2-55.6a20 20 0 0 1 16.6-.2q7.5 3.4 11.3 13l19.4 48.6-11.9 4.7-18.7-46.9q-2.8-7.1-6.7-9-3.8-2-9.2.2a17 17 0 0 0-8.2 6.9q-3 4.6-4.2 12l19.2 48-11.9 4.7-27-67.7 10.2-4 5 9.5q1.5-6.7 5.5-12 4.2-5.2 10.6-7.8M756.2 617q5.1 3 8.6 2.6t6.8-3.1l8.3 9.2a26 26 0 0 1-9.7 8.5 19 19 0 0 1-12.4.8 33 33 0 0 1-1.7 32.3 31 31 0 0 1-18.3 15.7q-11.2 3.1-22.6-3.3-13.5-7.7-15-21.6a52 52 0 0 1 8.4-31.5l7.5-13-6.3-3.6q-9-5.1-15.3-3t-11.4 11.1a86 86 0 0 0-8.5 25.3l-12.9-2.5a98 98 0 0 1 11-32.4q8.4-15 20-18 11.4-3.3 25 4.4Zm-9.2 40.6q7.2-12.6-1.8-27.3l-19.4-11.1-6.3 11q-13.4 23.4 4 33.3 7.5 4.3 13.4 2.8t10-8.7m57.7-75.3a20 20 0 0 1-12.2 10.1q-7.5 2-16.4-3.1l-101.7-58.2 6.7-15.7 103.1 59q3.6 2 5.8 1.7 2.3-.3 4-3.1 1.6-3 2.1-6l12.5 2q-.1 6.9-3.9 13.3m26.9-46.9a20 20 0 0 1-12.3 10.1q-7.5 2-16.4-3.1l-101.6-58.2 6.7-15.7 103 59q3.5 2 5.9 1.7 2.3-.3 3.9-3.1 1.8-3 2.2-6l12.4 2q-.1 6.9-3.8 13.3m7.1-120.5q3.8 2.1 7.4 4.7l-30.8 53.8q14.4 7 24.5 4.6a24 24 0 0 0 15.5-11.9q3.5-6 4.7-12.2 1.2-6 .5-14l12.5-1.3q2.8 19.5-6.3 35.5a39 39 0 0 1-27.2 20.9 54 54 0 0 1-37.4-8.3 69 69 0 0 1-20.8-17.6 42 42 0 0 1-9-21.3q-1.2-11.2 4.9-22a36 36 0 0 1 25.8-19.4q16.2-2.7 35.7 8.5M827 427.6l-1-.6a36 36 0 0 0-21.8-5.9q-9.4 1.2-15.1 11.1-10.4 18 15.3 35Zm0 0"/><path fill="#00b3ff" d="m330.7 641.9 4.2 13.5-87 6.6-6-19.3 64.1-35.3-73 6.4-5.8-18.8 75.5-44 4.4 14.2-67 36.7 76.4-6 4.9 15.9-66.7 37.3ZM294.9 747q-5 1.5-6.8 4-2 2.4-2 6.2l-11-.2q-1-6.5.4-11.3 1.6-4.7 7-8.4-14.8-4.4-19.7-20.4-3.8-12 1-21 4.5-9.1 15.5-12.5a24 24 0 0 1 22.8 3.2 46 46 0 0 1 15 24.3l4 12.5 6-1.8q8.6-2.7 11-8t-.2-14a75 75 0 0 0-11.1-20.5l9.2-6.7q10.3 13.4 14.2 26.3 4.5 14.4-.4 23.6-4.8 9.3-17.8 13.3ZM274.4 717q3.8 12.2 18.6 15.3l18.6-5.8-3.3-10.6q-6.9-22.5-23.6-17.4-7.2 2.2-9.8 7-2.6 4.6-.5 11.5m119.8 98.8-11.5 8q-3-4-5.2-9.5-2.1-5.4-4.6-13.4-2.1 16.4-16.1 20.6a27 27 0 0 1-22.5-2.2 34 34 0 0 1-14.7-20.2A35 35 0 0 1 318 788a9 9 0 0 0-4.2-1.9 10 10 0 0 0-4.6.3q-6.6 2-3.4 12.6l4 13a36 36 0 0 1 1.6 15.4q-1 7.3-5 12.3a21 21 0 0 1-10.5 7q-12 3.6-21.3-4a54 54 0 0 1-15.2-26.5 67 67 0 0 1-3.6-21.6q.3-8.4 4.7-13.3t12.9-7.6l4 12.9q-5 1.5-7.3 4.2t-2.3 8 2.7 14a41 41 0 0 0 8.8 17.3q5 4.5 11.2 2.5 5.8-1.7 7.3-7 1.6-5.1-.8-12.9l-3.9-12.8q-3.2-10.3-.4-17t9.4-8.7a15 15 0 0 1 8.4 0q4.4 1 8.7 4.5 1.5-8.2 6-13.2t12.3-7.4a28 28 0 0 1 29.4 7.7q6 6 8.6 14.8a118 118 0 0 0 5.6 15.8q3 6.3 5.6 10 2.8 3.9 7.5 9.2m-28.9-31.8q-2.5-8-8.8-11-6.4-2.8-14.6-.3a20 20 0 0 0-12 8.6q-3.6 6-1 14.2 2.6 8.4 8.7 11.3 6.3 2.9 15 .2 18-5.6 12.7-23M700.1 796l5.8-6.1 43.3 52.5-6.4 5.3Zm32.7-2 7.2-6-.1 27.5 32 8.2-7.6 6.3L733 822Zm63.6-5a8 8 0 0 0 3.5 2.8q1.7.5 3.7-.3l2.2 5.7q-3 2-6 2.2-2.7.1-5.8-1.8a16 16 0 0 1-6.4 14.6q-5.5 4.5-11.2 4a14 14 0 0 1-9.8-5.4q-4.8-6-3.2-12.6 1.7-6.6 9.5-13l5.6-4.7-2.2-2.7q-3.2-4-6.5-4-3.3-.2-7.2 3a42 42 0 0 0-8.4 10.2l-5.4-3.4q4.7-8.1 10.6-13 6.6-5.4 12.4-4.8 5.9.5 10.7 6.4Zm-11.3 17.2q5.5-4.5 4-13l-7-8.4-4.9 4q-10.2 8.5-4 16 2.7 3.2 5.7 3.6t6.2-2.2m37.6-87.7a12 12 0 0 1 9.8-3q5.3.8 9.5 6l21.8 26.5-6.4 5.3-21-25.6q-6-7.1-11.1-2.9a9 9 0 0 0-3.4 5.4q-.6 3.2 0 8.3l21.6 26.2-6.4 5.3-21.1-25.5q-6-7.2-11-3a9 9 0 0 0-3.4 5.6q-.6 3 0 8.2l21.6 26.2-6.4 5.3-30.5-37 5.6-4.5 5 5q-1-9.7 5.5-15 3.4-3 7.3-3.2 3.8-.1 7.5 2-.4-5 .7-8.8 1.2-4 4.8-6.8m0 0"/><path fill="#23e75d" d="M141.2 762.2q3.6-9.9 12.2-12t21.5 2.4q12 4.3 17.7 12.3a18 18 0 0 1 2.1 17.6q-3 8.6-10.6 11.4l24.4 8.6-2.1 9.4-72.4-25.6 2.8-7.8 7.2 1.8a21 21 0 0 1-3.6-9 19 19 0 0 1 .8-9.1m45.4 19.8q4.5-12.7-15.1-19.7-19.8-7-24 4.7-1.2 3.7-.1 7.7 1 3.9 3.8 7.5l25.1 9q3.7-1 6.4-3.3a14 14 0 0 0 4-5.9m24.4-45.4a11 11 0 0 1-5.8 6.8 12 12 0 0 1-9.4 0l-62-22.1 2-9.4 63 22.4q2.2.8 3.4.3t1.9-2.1q.6-1.9.6-3.6h7q.7 3.7-.7 7.7m-32.6-75.4 51.5 18.3-2.7 7.7-8.3-2.2q3.7 4.7 4.6 9.2.8 4.7-1 10.1a15 15 0 0 1-8 9.1q-5.5 2.4-13-.3L164.7 700l3.2-9 36 12.8q5.2 1.8 8.1.8 3-1.1 4.4-5.3 2.7-7.6-4.4-16l-36.7-13.1Zm-14.2-26 2.1-9.3 73.4 26-3.2 9Zm30.9-21.2 3.6-10 16 27 36.3-11-3.9 10.8-35.4 10.5ZM141 388.8l8.4 8.7-64 38.8-12-12.4 35.3-51.9-53.3 33.3L43.7 393l40.6-62.9 8.8 9.2-36.9 54 56-34.2 10 10.2-36.5 54.4Zm13.4 94.3q-3.2 3-3.6 5.7-.5 2.6.8 5.5l-8.4 4q-3.4-4.5-4-8.7t2-9a24 24 0 0 1-23-8q-7.5-7.8-7.5-16.5t7.2-15.6a21 21 0 0 1 18.6-6.3 39 39 0 0 1 21 12.7l7.8 8 3.8-3.7q5.6-5.4 5.4-10.4t-5.6-10.6a64 64 0 0 0-16.4-11.4l4.4-8.7q13 6.3 21.1 14.6 9 9.3 8.8 18.2 0 9-8.4 17ZM127.1 468q7.5 7.8 20 4.4l12.1-11.6-6.6-6.9q-14.1-14.5-24.8-4-4.7 4.5-4.9 9 0 4.6 4.2 9.1m79.6 69.2q-3 3-3.6 5.7-.4 2.6.8 5.5l-8.4 4q-3.4-4.5-4-8.7t2-9a24 24 0 0 1-23-8q-7.5-7.8-7.4-16.5t7-15.6a21 21 0 0 1 18.7-6.4 39 39 0 0 1 21 12.8l7.8 8 3.9-3.7q5.6-5.4 5.3-10.4t-5.6-10.6a64 64 0 0 0-16.4-11.4l4.4-8.7q13 6.3 21.1 14.6 9 9.2 8.9 18.2-.2 9-8.5 17Zm-27.3-15.1q7.6 7.8 20 4.4l12.1-11.6-6.6-6.9q-14-14.4-24.8-4-4.6 4.5-4.8 9t4.1 9m109 16.7q2.6 2.8 4.3 5.7l-10.6 7q-1.7-3-3.8-5.2a14 14 0 0 0-11.2-4.4 37 37 0 0 0-15.6 6.1l-30 29-8.8-9.2 52.4-50.6 7.6 7.8-9.8 11.2q7.9-3.6 14.4-2.9t11 5.5m0 0"/><path fill="#00b3ff" d="m813 376.8 5.6-6.4 45.7 50.5-6.2 5.6Zm32.7-3.5 6.9-6.3 1.1 27.5 32.5 6.6-7.4 6.7-31.7-6.6Zm63.3-7.8a8 8 0 0 0 3.6 2.5q1.6.3 3.7-.4l2.4 5.6q-3 2.1-5.8 2.4t-5.9-1.5a16 16 0 0 1-5.8 14.9 15 15 0 0 1-11 4.5 14 14 0 0 1-10-5 14 14 0 0 1-3.7-12.4q1.2-6.7 8.8-13.4l5.4-5-2.4-2.6q-3.4-3.8-6.6-3.7-3.4 0-7 3.4a42 42 0 0 0-8 10.5l-5.6-3q4.5-8.5 10-13.6 6.4-5.7 12.2-5.4 6 .3 11 6ZM898.4 383q5.4-4.8 3.4-13.1l-7.4-8.2-4.6 4.2q-9.8 9-3.3 16.2 3 3.1 6 3.4t6-2.5m14.3-71.9q6.8-6.2 14.3-4.2 7.5 2.1 15.5 10.8 7.6 8.4 8.6 16.8a16 16 0 0 1-5.7 14.4q-6 5.4-13 4.4l15.3 16.8-5.5 6.4-45.1-49.9 5.3-4.8 4.8 4.4q-.5-4.5 1-8.4 1.4-4 4.5-6.7m26.7 34.1q8.7-7.8-3.5-21.4-12.3-13.5-20.3-6.4a11 11 0 0 0-3.4 5.9q-.8 3.5-.2 7.4l15.7 17.3q3.2.9 6.2.1 3-.6 5.5-2.9M236.5 162.1q5.8 3.2 9.3 7.4 3.7 4.2 6 9.6l-7.6 3.8q-2.4-4.5-5.2-7.7-2.7-3-6.5-5.2-4.7-2.7-8.6-2.3a7 7 0 0 0-5.8 3.8 7 7 0 0 0-.4 6.7q1.6 3.3 7.3 9 8 7.5 10.2 14.1 2.3 6.7-1.6 13.6a16 16 0 0 1-13.5 8.9 31 31 0 0 1-18-4.5 35 35 0 0 1-16.8-19.2l8.5-3a29 29 0 0 0 12.5 14.3q5.5 3 10 2.7 4.5-.5 6.7-4.4 1.6-2.8 1.4-5.2 0-2.4-2.2-5.3a64 64 0 0 0-6.7-7.6q-7.6-7.2-9.3-13.4t1.7-12.2q2.5-4.3 7-6.3 4.6-2.1 10.3-1.4a30 30 0 0 1 11.3 3.8m55 31.2a26 26 0 0 1 13.7 18.1q2 11.5-5.5 24.9a42 42 0 0 1-11.6 13.5q-6.7 4.9-14.4 5.4-7.6.5-15.3-4a26 26 0 0 1-13.8-18q-2-11.5 5.5-25a42 42 0 0 1 11.6-13.4q6.8-5 14.3-5.4 7.7-.5 15.5 4m-4.4 7.8q-14.5-8-26.5 13.1t2.2 29.3q14.4 8 26.4-13.1t-2.1-29.3m100.7 47a16 16 0 0 1 8.3 10.8q1.5 6.9-2.9 14.7l-22.6 39.7-9.7-5.5 21.8-38.4q6.1-10.7-1.6-15.1a12 12 0 0 0-8.3-1.6 38 38 0 0 0-10.4 4L340.1 296l-9.7-5.5 21.8-38.4q6-10.7-1.7-15.2a12 12 0 0 0-8.4-1.6 38 38 0 0 0-10.2 4l-22.3 39.4-9.7-5.5 31.5-55.5 8.3 4.7-3.8 8.6q11.5-5.8 21.4-.3 5.1 3 7.2 7.6 2.2 4.7 1 10.4 6-3 11.5-3.3 5.4-.4 10.8 2.7m0 0"/><path fill="#23e75d" d="m841 503.2 4.3-5.8 50.2 28.1-3.1 5.5-5.3-2.1q1.8 3.3 1.8 6.7 0 3.6-1.8 6.8-3.6 6.4-10.6 7.1-7 .8-15.5-4-5.5-3-8.8-7.1a17 17 0 0 1-4-8.7q-.6-4.5 1.8-8.8 3-5.5 9.8-7.2Zm41.9 35a10 10 0 0 0 1.4-5.5q-.2-2.9-1.7-6.2l-17.6-9.8q-3.2.4-5.6 1.8a10 10 0 0 0-3.7 3.8 8 8 0 0 0-.1 8.4q2.2 4.2 9 8 7 4 11.5 3.7t6.8-4.1m-8-61.6q1-2 2.3-3.3l5.5 4.6q-1.3 1.4-2.2 2.8a8 8 0 0 0-.5 6.8q1.3 3.4 5.8 7.4l20.4 11.5-3.5 6.2-35.8-20 3-5.4 7.6 3.5a16 16 0 0 1-3.8-7.3 10 10 0 0 1 1.1-6.8m21.6-36.8 35.8 20-3 5.4-5.8-2.7q2.2 4 2.2 7.4 0 3.6-2 7.3-2.7 4.7-7 5.8-4.4 1-9.6-1.9l-25.7-14.4 3.5-6.2 25 14q3.6 2 6 1.6 2.1-.4 3.8-3.4 3-5.2-1.1-12.4L893 446Zm-7.1-21 2.7-6.7 51 28.6-3.6 6.2Zm25.5-11.8 3.9-7 8.4 22 28.2-3.4-4.2 7.5-27.5 3.2ZM446 485.3q3.4-1.3 6.6.2 3 1.5 4.6 5.6l8 20.5-5 2-7.8-19.9q-2.1-5.5-6.2-4a6 6 0 0 0-3 2.7q-1 1.7-1.7 5l7.9 20.4-5 2-7.7-20q-2.2-5.5-6.2-4a6 6 0 0 0-3.2 2.7q-1 1.9-1.6 5l7.9 20.4-5 2-11.2-28.7 4.4-1.7 2 4q1.3-6 6.4-8a8 8 0 0 1 5-.4 8 8 0 0 1 4.2 2.7q.8-3 2.3-5.3 1.5-2 4.3-3.2m46 8.3q.7 1.7 1.5 2.3a4 4 0 0 0 2.3.6l.2 4q-2.3.4-4 0t-3.2-2.2q-1.2 5.4-7 7.6a10 10 0 0 1-7.5.2 9 9 0 0 1-5-5.3q-1.8-4.5.7-8.3 2.3-3.7 8.3-6l4.4-1.8-.8-2.1q-1.2-3-3.1-3.8t-5 .5a27 27 0 0 0-7.2 4.5l-2.7-3.2a31 31 0 0 1 9.2-5.8q5-2 8.5-.4 3.4 1.5 5.2 6Zm-10.4 8.1q4.2-1.7 5-7L484 488l-3.7 1.5q-8 3-5.7 9 1 2.6 2.8 3.3 1.7.9 4.2-.1m7.6-45.7 4.8-2.5 15.8 40.8-5 2Zm20.4 5.4 5.6-2.2-5.7 16.8 18 11.4-6 2.4-17.4-11.3Zm19.5-8.3q3-1.2 5.6-1.2 2.6-.2 5.4.7l-1 4q-2.3-.6-4.4-.4-2 0-4 .8a7 7 0 0 0-3.4 2.5q-1 1.5-.3 3.3a3 3 0 0 0 2.3 2.2q1.8.4 5.6 0 5.2-.6 8.4.5t4.6 4.8q1.5 4.2-.8 7.7a15 15 0 0 1-7.2 5.4 17 17 0 0 1-12.3.4l1.5-4q4.8 1.2 9.2-.4a8 8 0 0 0 4-3 4 4 0 0 0 .4-3.8q-.6-1.4-1.5-2t-2.7-.9-4.8.3q-5 .6-7.9-.7a7 7 0 0 1-4-4.3q-1-2.2-.2-4.6.6-2.3 2.6-4.2t4.9-3.1m0 0"/><path fill="#ff3c00" d="M367.5 323.1q4.2 3.8 4.4 8.3 0 4.5-3.7 9l-19.5 22-5.4-4.7 18.8-21.3q3-3.2 2.9-5.7 0-2.4-2.5-4.5a9 9 0 0 0-5.5-2.4q-3-.3-7 1l-19.3 21.7-5.4-4.7 27.1-30.8 4.7 4.1-3.6 5q3.8-1 7.5-.3 3.6.8 6.5 3.3m19.1 18.1 5.4 4.8-27.2 30.7-5.3-4.7Zm15.7-12.4a4.8 4.8 0 0 1 .5 7q-1.3 1.5-3.3 1.7a5 5 0 0 1-3.7-1.4 5 5 0 0 1-1.7-3.4q-.2-2 1.2-3.5a5 5 0 0 1 7-.4m11.2 62-2.5 2.6-19.6-17.3q-4.2 5.4-4 9.7a10 10 0 0 0 3.6 7.4q2.1 2 4.6 3t5.7 1.4l-.5 5.3a23 23 0 0 1-14.1-5.6 17 17 0 0 1-6.3-13q0-7.5 6.6-14.8 4.2-4.8 9-7.1 4.9-2.4 9.6-2 4.7.6 8.6 4 6.1 5.4 5.9 12.3a23 23 0 0 1-6.6 14m-4.2-6 .3-.3a15 15 0 0 0 4.3-8.6q.3-4-3.3-7.1-6.6-6-15.7 3.3Zm0 0"/><path fill="#00b3ff" d="m665.2 287.8-1.8 5.7q-2.1-.6-4.2-2-2-1-5-3.2 3.6 6 0 11-3.2 4.5-8 5.1-5.1.7-10.2-3-2-1.4-3.4-3.2-1 0-1.9.5t-1.4 1.2q-1.7 2.4 2.1 5.1l4.7 3.3q3 2.1 4.5 4.8t1.5 5.4-1.7 5a9 9 0 0 1-8.2 4.2q-5.1-.2-11.9-5a28 28 0 0 1-6.8-6.2q-2-3-1.8-5.7.3-2.8 2.3-5.8l4.7 3.2a6 6 0 0 0-1.3 3.3q0 1.4 1.2 3.3 1.5 1.6 4.6 4 4.5 3.2 7.4 3.4 2.7.3 4.4-2 1.4-2.1.6-4.2a9 9 0 0 0-3.6-4.1l-4.6-3.3q-3.7-2.6-4.5-5.5a6 6 0 0 1 .8-5.4q1.1-1.5 2.8-2.2a10 10 0 0 1 4.1-.7q-1.5-3-1.4-6 .2-2.7 2.2-5.6a12 12 0 0 1 11.8-5q3.6.4 6.7 2.7 3.4 2.6 6 3.9t4.4 1.9zm-17.9-3.2a7 7 0 0 0-5.7-1.3q-3 .6-5 3.6-2.1 3-1.8 6t3.3 5 5.9 1.5a9 9 0 0 0 5-3.8q4.6-6.5-1.7-11m7 45.4q-2.9-2-3.3-4.9a8 8 0 0 1 1.8-6l24.9-35.2 5.5 3-25.2 35.8q-.9 1.2-.9 2t1 1.6q1.2.8 2.2 1l-1.2 4.5q-2.6-.3-4.8-1.8m53.2-7.5-30.6 22.6q-5.3 4-10.5 4.7-5.2.9-11.4-2.6l2.3-4.4q3.2 1.5 5.6 1.8t4.5-.5 4.7-2.6l-1.7-1.2 10.8-36.3 5.5 3.9-10.2 31 25.7-20ZM454.2 591.3l1.5-6.1 48 17.2-2 5.9Zm20.3-13.8 2.4-6.6 10.5 17.8 23.8-7.1-2.5 7-23.3 6.8Zm8.9-27q2.6-7.2 8.7-9.4t14.3.6q5.2 2 8.6 5.1a15 15 0 0 1 4.3 7.5q1 4.1-.6 8.8a15 15 0 0 1-8.8 9.4 21 21 0 0 1-14.3-.6q-5.2-2-8.6-5.1a15 15 0 0 1-4.3-7.5q-1-4 .7-8.9m4.7 1.6q-3 8.8 9.8 13.4 13 4.6 16-4 3.1-8.8-9.8-13.4-13-4.7-16 4m9.7-42q2.3-6.4 8-7.8t14 1.7a23 23 0 0 1 11.7 8 12 12 0 0 1 1.3 11.6 12 12 0 0 1-7 7.4l16 5.8-1.4 6.1-47.4-17 1.8-5 4.7 1.2q-1.9-2.8-2.3-6-.4-3 .6-6m29.7 13.2q3-8.4-9.9-13t-15.7 3a8 8 0 0 0-.1 5q.7 2.7 2.5 5l16.4 6q2.5-.7 4.2-2.2t2.6-3.8M947.5 385.3a10 10 0 0 1 4.3-7q3.3-2.3 8.4-1.3l25.3 4.4-1 6.2-24.6-4.3q-3.7-.6-5.5.5t-2.3 4a8 8 0 0 0 .8 5.1q1.1 2.4 3.8 4.8l25.2 4.5-1.1 6.1-49.5-8.7.4-6.3 19.7 3.5a13 13 0 0 1-3.9-11.5m26.2-46.3 3 .7-3.9 22.6q6 .6 9.1-1.5a9 9 0 0 0 4-6 15 15 0 0 0-1.5-9.8l4.1-2q3.4 6.4 2.3 13.1-1.4 7.5-6.9 10.6a20 20 0 0 1-14 1.8q-5.4-1-9.4-3.5a16 16 0 0 1-5.8-6.2 13 13 0 0 1-1-8.3q1.2-7 6.5-10t13.5-1.5m-2.5 6-.4-.2q-5.2-1-8.4.7-3 1.5-3.8 5.8-1.5 7.5 9.7 10.2Zm-11.7-46.1 5.9-.8q.3 2.1 0 4.5l-.8 6q4-5.8 10-4.7 5.4.9 8 5.1 2.8 4.2 1.7 10.5-.4 2.4-1.5 4.4.5.8 1.2 1.5a4 4 0 0 0 1.8.8q3 .5 3.7-4.1l1-5.7a15 15 0 0 1 2.4-6q1.7-2.6 4.2-3.7t5.3-.6a9 9 0 0 1 7.2 5.6q2.1 4.7.6 12.8-1 5.8-2.7 8.8a9 9 0 0 1-4.4 4.1q-2.5 1-6.3.4l1-5.6q2.1.4 3.5-.2 1.5-.6 2.4-2.5 1-2 1.7-5.8 1-5.6 0-8.2a5 5 0 0 0-3.7-3.1q-2.4-.4-4 1.2a9 9 0 0 0-2.3 5l-1 5.6q-.7 4.5-3 6.4a6 6 0 0 1-5.3 1.5 6 6 0 0 1-3.1-1.6q-1.5-1.2-2.4-3.4-2.1 2.8-4.8 3.9-2.7 1-6 .4a12 12 0 0 1-9.6-8.6q-1-3.4-.4-7.2a50 50 0 0 0 .7-11.9q-.3-2-1-4.8m4.7 17.5a7 7 0 0 0 1.3 5.8q1.8 2.3 5.4 2.9t6.1-1a7 7 0 0 0 3.1-5q.6-3.7-1-6a9 9 0 0 0-5.7-3q-7.8-1.3-9.2 6.3M214 768.5a7 7 0 0 1 4.9-3.1q3-.4 6 1.8l15.9 11-2.7 3.9-15.3-10.7q-4.3-3-6.4.1a5 5 0 0 0-1 3.4 16 16 0 0 0 1.2 4.5l15.7 11-2.7 3.8-15.3-10.7q-4.3-3-6.4.2a5 5 0 0 0-1 3.4q.1 1.8 1.3 4.5l15.6 10.9-2.7 3.9-22-15.4 2.3-3.3 3.4 1.9q-1.9-5.1.7-9a7 7 0 0 1 3.5-2.8 7 7 0 0 1 4.4 0q-1-2.6-1-5 .1-2.2 1.6-4.3m32.1-22.9 2 1.5-9.9 14q3.9 2.4 6.7 2a7 7 0 0 0 4.5-3 11 11 0 0 0 1.6-3.2q.5-1.7.5-3.8l3.5-.1q.3 5.4-2.6 9.6a11 11 0 0 1-8 5.1q-4.9.5-10.1-3.2a19 19 0 0 1-5.4-5.4q-1.8-3-2-6 0-3.1 2-6 3-4.4 7.6-4.7t9.6 3.2m-3.5 3.2-.3-.1a10 10 0 0 0-5.9-2.2q-2.6 0-4.4 2.7-3.2 4.7 3.4 10Zm22.7-13.3 3.6.3q0 3.2-2 6a7 7 0 0 1-4.6 3.2q-2.8.5-5.8-1.7l-13.3-9.2-2.7 3.8-3-2 2.7-4-5-3.4 2.2-4.2 5.5 3.8 3.6-5.2 2.7 2.5-3.3 4.8 13.1 9.2q1.7 1.2 3 1.1 1.1 0 2.1-1.5.9-1.3 1.2-3.5m0 0"/><path fill="#ff3b00" d="M949.7 216q5.1 4.3 5.4 10.3.1 6-4.8 12l-25.2 30-7.3-6.2 24.3-29q6.9-8 1-13-3-2.6-6.8-2.6-3.6 0-9.3 1.7L902 249l-7.3-6.1 24.4-29q6.8-8.2 1-13a10 10 0 0 0-7-2.7q-3.6 0-9.1 1.8l-25 29.7-7.3-6.2 35.2-41.8 6.3 5.2-4.5 6.7q10.5-3 18 3 3.9 3.4 5 7.6 1 4.3-.8 8.9 5.5-1.6 10.1-1 4.7.5 8.7 4m56 48.6L956.4 295a37 37 0 0 1-16.6 5.7 27 27 0 0 1-17-5.4l4-6.4q4.8 2.7 8.4 3.5t6.9-.2a32 32 0 0 0 7.5-3.4l-2.5-2 21.1-53.7 7.8 6.5-19.5 46 41.7-27.3Zm0 0"/><path fill="#23e75d" d="M805 863a6 6 0 0 1-4.8 1.3q-2.4-.4-4.3-3l-21.9-30 4-3.6L800 858q.8 1 1.5 1.3.7.2 1.5-.4 1-.7 1.4-1.5l3.4 2.2a9 9 0 0 1-2.9 3.4m8.6-45.2 10 31q1.6 5.4.9 9.8t-5.3 8.5l-3-3a16 16 0 0 0 3-4q1-2 1-3.9-.1-1.8-1-4.5l-1.4 1-26.5-18.7 4.7-3.4 22.4 16.9-9.3-26.5Zm16.2-12.7a9 9 0 0 1 6.8-1.9q3.3.6 6 4.2l13 17.8-4.4 3.2-12.5-17.2q-2-2.7-3.7-3-1.8-.5-3.8 1a7 7 0 0 0-2.6 3.7q-.7 2.2-.5 5.3l13 17.6-4.4 3.2-18.2-24.8 3.8-2.8 3 3.4q0-3 1-5.5 1.2-2.6 3.5-4.2m43.6-13.1 1.6 2.3-15.9 11.5q3.3 3.9 6.5 4.5t6-1.4q1.8-1.3 3-3 1-1.5 2-3.9l3.7 1.2a17 17 0 0 1-6.4 9.5q-5.2 3.7-10.6 2.5t-9.7-7.2a22 22 0 0 1-3.7-7.8q-1-3.9.1-7.3 1.1-3.5 4.3-5.7 5-3.6 10-2.3t9.1 7m-5 2.1-.2-.3q-2.7-3.7-5.5-4.5-3-1-5.8 1.3-5.4 3.8-.1 12Zm0 0"/><path fill="#00b3ff" d="M593.3 394.8a15 15 0 0 1 2.6-4.3 15 15 0 0 1 3.8-3l2 3q-2 1.3-3 2.6-1.2 1.3-2 3a6 6 0 0 0-.5 3.7 3 3 0 0 0 1.9 2.2q1.5.6 2.8-.1 1.3-.8 3.4-3.5a16 16 0 0 1 5.5-5q2.6-1.2 5.7.1 3.8 1.6 4.4 5.2.7 3.7-1 7.8-2.4 5.6-7.3 8L610 411q3.8-2.1 5.3-6 1.1-2.3.7-4.2t-2.1-2.6a4 4 0 0 0-2.3-.4q-1 .2-2.1 1.2t-2.9 3.2a14 14 0 0 1-5.2 4.5q-2.5 1-5.1-.1a6 6 0 0 1-3-2.7q-1.1-1.8-1.1-4.2 0-2.3 1-5m33.1-23.6q1.5.6 2.5.5 1-.2 1.7-1.1l2.6 2.2a7 7 0 0 1-2.4 2.7q-1.3.8-3.4.6a9 9 0 0 1 .6 9q-1.5 3.6-4.5 4.8-3 1.3-6.3-.1a8 8 0 0 1-4.9-5.5q-.9-3.7 1.4-9l1.6-3.7-1.9-.8q-2.5-1.2-4.3-.4-1.6.9-2.7 3.5-1.2 2.7-1.6 7.2l-3.6-.3q.3-5.3 2-9.2 1.9-4.4 4.9-5.7t7 .5Zm-1.2 11.5q1.5-3.7-1.4-7.5l-5.7-2.4-1.3 3.2q-3 6.9 2.1 9 2.2 1 3.8.4t2.5-2.7m-24-32.7 1.4-4.6 35.2 15-1.8 4.4Zm15.9-9.5 2-4.8 7.1 13.8 18.1-4.3-2.2 5.2-17.7 4Zm0 0"/><path fill="#23e75d" d="M13.2 368.4q.6-3.1 2.7-4.6 2.3-1.4 5.4-.8l16.3 3-.7 4-15.7-3q-2.4-.3-3.6.4t-1.5 2.5.5 3.3 2.5 3.2l16.1 2.9-.7 4-22.7-4.2.6-3.4 3.4.3q-1.5-1.5-2.3-3.5a8 8 0 0 1-.3-4.1m6.2-31.4 22.7 4-.6 3.5-3.6-.3a9 9 0 0 1 2.5 3.5q.7 1.8.3 4.3-.6 3-2.7 4.3a7 7 0 0 1-5.4.7l-16.3-2.9.7-4L33 353q2.3.4 3.4-.2t1.5-2.5q.6-3.4-3-6.4l-16.1-3Zm5.4-30.3.7-3.8 21.8 9.2-1 5.4-19.8.5 18.4 7.6-1 5.2-23.6 1.2.7-4 20.7-.4-19.2-8 .8-4.5 20.7-.7Zm15.4-24 2 .5-2.6 14.4q3.8.4 5.8-.9a6 6 0 0 0 2.6-3.9q.3-1.6 0-3-.1-1.5-1-3.2l2.7-1.3q2.3 4 1.5 8.4-.8 4.7-4.5 6.8a13 13 0 0 1-9 1.2q-3.5-.7-6-2.3a10 10 0 0 1-3.7-4q-1.2-2.5-.7-5.4.9-4.5 4.2-6.4 3.5-1.8 8.7-.9m-1.6 3.8h-.3q-3.3-.7-5.3.3-2 1.1-2.5 3.7-1 5 6.2 6.6ZM387.6 764.7q3-3.3 6.8-2.5 3.6.7 7.8 4.8 3.9 3.7 4.6 7.8t-2.3 7a7 7 0 0 1-6.1 2.6l7.8 7.6-2.4 3.2-23.2-22.6 2.4-2.5 2.4 2q-.3-2.1.2-4.1a8 8 0 0 1 2-3.3m13.9 15.6q3.9-4-2.3-10.2-6.4-6.3-10-2.5-1.2 1.2-1.5 3-.1 1.6.2 3.5l8 7.9q1.5.3 3-.2a6 6 0 0 0 2.6-1.5m20.8-25q.9 1 1.8 1a3 3 0 0 0 1.7-.3l1.4 2.7q-1.5 1.1-2.8 1.3-1.2.3-2.8-.5.8 4-2.4 7.3a7 7 0 0 1-5.1 2.5q-2.7 0-5-2.1a7 7 0 0 1-2.2-5.9q.5-3.2 3.9-6.7l2.4-2.5-1.2-1.2q-1.7-1.8-3.3-1.6-1.6 0-3.3 1.8t-3.5 5.3l-2.8-1.3q2-4.1 4.5-6.8 2.9-3 5.6-3 3 0 5.5 2.6Zm-4.6 8.7q2.4-2.4 1.2-6.4l-3.7-3.7-2.2 2.2q-4.5 4.6-1 7.9 1.5 1.4 2.9 1.4 1.5 0 2.8-1.4m21.2-25.8q1 1 1.8 1.1t1.8-.3l1.3 2.6q-1.4 1.1-2.7 1.4t-2.9-.6q.9 4-2.3 7.4a7 7 0 0 1-5.2 2.5q-2.7 0-5-2.1a7 7 0 0 1-2.1-5.9q.4-3.3 3.8-6.7l2.5-2.6-1.2-1.2q-1.8-1.6-3.4-1.6-1.5.1-3.3 1.9t-3.4 5.3l-2.8-1.3a23 23 0 0 1 4.4-6.8q3-3 5.7-3t5.5 2.5Zm-4.5 8.8q2.4-2.5 1.2-6.4l-3.8-3.7-2.1 2.2q-4.5 4.5-1.1 7.8 1.5 1.5 3 1.5 1.3 0 2.8-1.4m4.3-34.6q.8-.8 1.7-1.5l2.3 3.3-1.6 1.3q-1.5 1.5-1.2 3.6.1 2 2 4.9l9.4 9.2-2.8 2.9-16.5-16.2 2.4-2.4 3.7 3a9 9 0 0 1-1-4.6q0-2 1.6-3.5m0 0"/><path fill="#00b3ff" d="M385.3 619q2 2 3 4a15 15 0 0 1 1.5 4.5l-3.5.8a16 16 0 0 0-1.3-3.7q-.9-1.6-2.2-2.8a6 6 0 0 0-3.2-1.9 3 3 0 0 0-2.8 1 3 3 0 0 0-.8 2.7q.2 1.5 2 4.4 2.5 4 2.7 6.9t-2 5.4q-2.8 2.8-6.5 2.2a13 13 0 0 1-6.9-3.7q-4.5-4.2-4.9-9.6l3.8-.3q.7 4.3 3.7 7 1.8 2 3.8 2.2 1.8.3 3.2-1a4 4 0 0 0 1-2q.2-1-.3-2.5t-2-3.7a14 14 0 0 1-2.4-6.5q0-2.7 2-4.8 1.4-1.5 3.5-1.9t4.4.5 4.2 2.8m21 20.2a8 8 0 0 1 2.7 5.6q0 3-2.7 5.8L393 664.5l-3.4-3.3 12.9-13.4q2-2 2-3.7 0-1.5-1.5-3t-3.5-1.8-4.7.5l-13.2 13.8-3.4-3.3 18.6-19.4 3 2.8-2.5 3.1q2.5-.4 4.9 0 2.4.6 4.2 2.4m26.4 26-25.2 13.4a18 18 0 0 1-8.4 2.3q-4 0-8-3.2l2.1-3q2.2 1.5 4 2t3.3 0q1.7-.2 3.8-1.3l-1.1-1.1 12.1-25.7 3.6 3.5-11 21.9 21.3-12Zm0 0"/><path fill="#23e75d" d="M653.4 264.3a6 6 0 0 1 5.4-2.1q3.3.3 6.8 3.5 2.3 2.1 3.3 4.2a8 8 0 0 1 .9 4.4 7 7 0 0 1-1.8 3.8 6 6 0 0 1-5.3 2l1.3 1.7-2 2.2-20-18.1 2-2.8 7.8 7.1q-.7-3.5 1.6-6m12 12.6a4 4 0 0 0 1-3.8q-.3-2.1-3.2-4.7t-5-3q-2-.2-3.5 1.4-1.7 1.8-.8 5.3l6.8 6.2q1.4.2 2.7-.1 1.2-.4 2-1.3m13.4-26.5 1.2 1.2-8.2 9q2.6 2 4.5 2 2.1 0 3.6-1.6a8 8 0 0 0 2-4.9l2.5.3q-.1 3.9-2.7 6.6-2.6 3-6.2 2.9-3.3-.2-6.8-3.2a14 14 0 0 1-3.3-4.3q-1-2.2-.8-4.5a7 7 0 0 1 1.9-4 7 7 0 0 1 5.8-2.7q3.2.2 6.5 3.2m-2.8 2-.1-.2a7 7 0 0 0-4-2.1q-2-.1-3.4 1.5-2.8 3 1.5 7.4Zm6.9-19.9 2.3-2.6 9.9 17.7-2.8 3-18.6-8 2.4-2.7 15.4 7.2Zm24.5-5.1a3 3 0 0 0 1.6.8q.7 0 1.4-.3l1.2 2.2q-1.1.9-2.2 1.2t-2.4-.4q.8 3.3-1.7 6.2a6 6 0 0 1-4.3 2.2q-2.2.2-4.2-1.6a6 6 0 0 1-2-4.8q.3-2.7 3-5.7l2-2.2-1-1q-1.5-1.4-2.9-1.2-1.2 0-2.6 1.7-1.5 1.5-2.8 4.5l-2.3-1q1.4-3.6 3.4-5.8 2.4-2.5 4.7-2.7 2.4 0 4.6 2Zm-3.5 7.4q2-2.1.8-5.3l-3.2-3-1.7 1.9q-3.6 4-.7 6.5 1.3 1.2 2.5 1.2t2.3-1.3m14.8-17.8 2.5.5a7 7 0 0 1-1.9 4 5 5 0 0 1-3.6 2q-2 0-3.9-1.8l-8.6-7.8-2.2 2.5-2-1.7 2.3-2.5-3.2-3 2-2.7 3.5 3.2 3-3.4 1.7 2-2.8 3.2 8.4 7.7q1.1 1 2 1t1.7-.8 1.1-2.4m0 0"/><path fill="#00b3ff" d="M343.7 558.4q1 3.5-.5 6.2-1.5 2.6-5.1 3.7l-18.5 5.6-1.4-4.5 17.9-5.4q2.7-.8 3.5-2.2t.2-3.4a6 6 0 0 0-2.3-3.2q-1.6-1.2-4.2-2l-18.3 5.6-1.4-4.5 36.1-11 1.9 4.4-14.4 4.4a10 10 0 0 1 6.5 6.3m-1.8 39.9-2.3.6-5-16.4q-4.2 1.6-5.6 4a7 7 0 0 0-.6 5.4 11 11 0 0 0 1.6 3.3q1 1.3 2.7 2.7l-2 2.8q-4.5-3.1-6-8a11 11 0 0 1 1-9.5 15 15 0 0 1 8.7-6 19 19 0 0 1 7.5-.8q3.5.3 6 2.3 2.4 1.9 3.5 5.1 1.5 5.1-1 8.9a15 15 0 0 1-8.5 5.6m-.3-4.8h.3a10 10 0 0 0 5.3-3.4q1.5-2 .6-5.1-1.6-5.6-9.9-3.6Zm-3.6 26.1-2.4 2.6q-2.6-2-3.5-5.2a7 7 0 0 1 .3-5.7q1.3-2.4 4.9-3.5l15.5-4.7-1.4-4.5 3.5-1 1.4 4.5 5.8-1.8 1.9 4.3-6.4 2 2 6-3.7.6-1.7-5.6-15.4 4.7q-2 .6-2.7 1.6-.6 1-.1 2.6.5 1.5 2 3.1M763.9 172.1l3.9 2.8-25.8 28.3-3.5-3.1Zm3.7 18 4 3.6-15.4 2.2-2 18.5-4.1-3.8 2-18Zm17.4 15 1.8 2-3.8 2.9q-.7-1-1.5-1.8a5 5 0 0 0-4.2-1.4q-2.4.4-5.6 2.6l-10.4 11.4-3.5-3.1 18.2-20 3 2.8-3.4 4.3q2.8-1.5 5.2-1.4 2.4 0 4.2 1.8m20.2 19.2-25 14a18 18 0 0 1-8.2 2.5q-3.9 0-8.2-3l2.1-3q2.3 1.4 4 1.8t3.4 0q1.5-.3 3.8-1.5l-1.2-1 11.4-26 3.7 3.4-10.5 22.2 21-12.6ZM164.7 362q4 3.4 3.5 7.7t-4.8 9.6a17 17 0 0 1-8.6 6.1 9 9 0 0 1-8.5-2 9 9 0 0 1-3.5-6.8l-8 9.8-4-2.5 24-29.2 3 2.6-2 3q2.5-.6 4.8-.2 2.3.6 4 2m-16.8 17.8q5.1 4.2 11.6-3.8t1.9-11.8a6 6 0 0 0-3.5-1.4q-2.1 0-4.2.5l-8.3 10.2a6.8 6.8 0 0 0 2.5 6.3m31.1 21.6q-1 1.3-1 2.3-.2 1 .5 2l-3 1.8q-1.4-1.5-1.8-3-.4-1.6.4-3.4a9 9 0 0 1-8.8-2 9 9 0 0 1-3.4-5.8q-.3-3 2-6 2.7-3.3 6.5-3 3.9 0 8.3 3.7l3.1 2.6 1.3-1.5q1.8-2.2 1.5-4t-2.4-3.7a24 24 0 0 0-6.6-3.5l1.3-3.3a27 27 0 0 1 8.3 4.4q3.7 3 4 6.3.4 3.3-2.3 6.6Zm-10.6-4.4q3 2.6 7.5.8l4-4.7-2.8-2.3q-5.7-4.7-9.2-.5-1.5 1.9-1.4 3.6 0 1.7 1.9 3.1m37.2-1.2a15 15 0 0 1 3.4 3.8q1.2 2 1.7 4.4l-3.4 1a16 16 0 0 0-1.6-3.5 11 11 0 0 0-2.3-2.7 6 6 0 0 0-3.4-1.6q-1.6 0-2.7 1.2a3 3 0 0 0-.6 2.7q.3 1.5 2.3 4.3 2.8 3.8 3.2 6.6.6 3-1.6 5.5-2.6 3-6.3 2.8a13 13 0 0 1-7.1-3.2q-4.7-4-5.6-9.2l3.7-.6q1 4.1 4.2 6.8a7 7 0 0 0 4 1.8q1.9.2 3-1.3a4 4 0 0 0 1-2q.2-1-.5-2.4t-2.3-3.6a14 14 0 0 1-2.8-6.3q-.3-2.6 1.5-5 1.4-1.5 3.4-2t4.4 0 4.4 2.5M834.7 170.3l4 3-23.8 15.6-4.5-3.5 9.2-26.9 4 3.1-8.4 22.3Zm9.8 33.7q-1 1.3-1 2.3-.1 1 .5 2l-2.8 1.9q-1.5-1.5-2-3t.3-3.4q-4.5 1.5-8.8-1.8a9 9 0 0 1-3.6-5.6q-.4-3.1 1.8-6 2.7-3.4 6.5-3.4 3.8.2 8.3 3.6l3.3 2.6 1.2-1.6q1.8-2.3 1.4-4-.3-2-2.6-3.6a23 23 0 0 0-6.6-3.4l1.2-3.4q5 1.6 8.5 4.3 3.8 3 4.2 6.2t-2.3 6.6Zm-10.8-4q3.1 2.4 7.6.5l3.8-4.9-2.8-2.1q-6-4.6-9.3-.3-1.5 2-1.3 3.6t2 3.1m41.4 1q3 2.3 3.2 5.3t-2 6l-12 15.2-3.6-2.9L872 210q1.8-2.3 1.7-3.8t-1.8-2.9a6 6 0 0 0-3.7-1.4q-2.1 0-4.6 1l-11.8 15-3.7-2.9 16.6-21.2 3.2 2.5-2.2 3.4q2.5-.8 4.9-.5t4.4 1.9M864.4 755.4a16.8 16.8 0 0 1 8-7.5l2 3.7q-2.2 1.2-3.7 2.5t-2.5 3.2a7 7 0 0 0-1 4.2q.2 1.8 1.8 2.7t3.3.2q1.5-.7 4.3-3.6 3.5-4 6.7-5 3.2-1.3 6.5.6a8 8 0 0 1 4.5 6.4 15 15 0 0 1-2 8.7 17 17 0 0 1-9.1 8.3l-1.5-4a14 14 0 0 0 6.7-6.2q1.5-2.7 1.2-4.9a4 4 0 0 0-2.2-3.2q-1.3-.7-2.5-.6t-2.5 1.1-3.6 3.3q-3.4 3.7-6.4 4.6-3 1-5.9-.7a7 7 0 0 1-3.1-3.3q-1-2.2-.8-5 .3-2.7 1.8-5.5m9.6-16.2 2.6-4.8 27 14.7-2.5 4.8Zm-11.7-9.4q.9-1.5 2.3-2 1.4-.2 2.8.4t1.7 2.2q.5 1.4-.4 2.9-.7 1.5-2.1 1.9t-2.8-.4a3.6 3.6 0 0 1-1.5-5m17-18.4q-1.1 2.1-.8 3.6t2.5 2.5l3.7 2 3.6-6.5 3.4 2.5-3.3 6 23.3 12.7-2.5 4.7-23.4-12.7-2.6 4.9-3.7-2 2.7-4.9-3.7-2a8 8 0 0 1-4.4-5.2 10 10 0 0 1 1.2-7.4 17 17 0 0 1 5-5.7l2.6 3.3a13 13 0 0 0-3.6 4.2m0 0"/><path fill="#23e75d" d="M583.6 631.7q4.4.6 5.9 4.1t.6 9.1q-1 5.3-3.8 8.3-2.9 2.8-7.1 2.2a7 7 0 0 1-5.6-3.6l-1.7 10.8-4-.2 5.2-32 3.4.6-.2 3.1q1.6-1.5 3.4-2.1a8 8 0 0 1 4-.3m-4.8 20.3q5.5.9 7-7.8t-3.7-9.6q-1.7-.2-3.2.5-1.5.8-2.9 2.2l-1.8 11q.6 1.5 1.8 2.5t2.8 1.2m32.4 2.6q-.3 1.5.1 2.2t1.3 1.2l-1.4 2.6q-1.6-.5-2.7-1.4-.9-1-1.2-2.7a8 8 0 0 1-7.3 2.3q-3.4-.6-5-2.8a7 7 0 0 1-1.1-5.3 7 7 0 0 1 3.5-5.1q3-1.5 7.7-.7l3.5.5.3-1.6q.4-2.5-.6-3.7t-3.4-1.6q-2.6-.4-6.3.2l-.6-3q4.5-.9 8.2-.3 4 .6 5.6 3 1.7 2.1 1.1 5.8Zm-9.8 1.4q3.4.4 6-2.7l.8-5.2-3-.5q-6.3-1-7 3.6-.4 2 .4 3.2t2.8 1.6m30.8-16.4 2.2.7-1.4 3.7-2-.5q-2-.5-3.6 1-1.5 1.2-2.8 4.4l-2.1 13-4-.6 3.7-22.8 3.4.6-.3 4.7q1.4-2.4 3-3.5 1.8-1 4-.7m22.1 15.2q0 1-.4 2l-14.5-2.4q-.4 3.9 1 5.9a6 6 0 0 0 4 2.5 9 9 0 0 0 6.2-1l1.3 2.6q-4 2.2-8.4 1.5-4.8-.8-6.9-4.3a13 13 0 0 1-1.2-9q.4-3.5 2.1-6 1.5-2.6 4-3.8 2.4-1.1 5.3-.8 4.5.8 6.5 4.2 2 3.3 1 8.6m-3.7-1.5v-.3q.6-3.3-.5-5.4-1.1-1.9-3.7-2.4-4.9-.7-6.5 6.3ZM791.1 624a6 6 0 0 1 5.1-1.3q2.6.4 4.5 3l9.9 13.3-3.3 2.4-9.5-12.8q-1.5-2-2.8-2.2-1.3-.4-2.8.8-1.4 1-2 2.8-.5 1.5-.2 4l9.7 13-3.2 2.5-13.8-18.5 2.8-2.1 2.3 2.5a9 9 0 0 1 .7-4.1 8 8 0 0 1 2.6-3.2m18.9-13.9q4-3 8-1.9 4 1 7.4 5.5 2 2.8 2.8 5.8.6 3-.4 5.5a10 10 0 0 1-3.5 4.5 9 9 0 0 1-8 2q-4-1.1-7.4-5.5-2.1-3-2.8-5.9-.6-2.8.3-5.5a10 10 0 0 1 3.6-4.5m2 2.6q-4.9 3.6.4 10.7 5.2 7 10 3.5 4.8-3.6-.5-10.6-5.2-7.2-10-3.6m31.5-2.7 2.8 1.2a9 9 0 0 1-3.2 4.4 6 6 0 0 1-4.6 1.3q-2.4-.3-4.3-3l-8.3-11.1-3.2 2.4-1.8-2.5 3.2-2.4-3.1-4.2 3-2.8 3.3 4.6 4.4-3.2 1.5 2.7-4 3 8.2 11q1 1.5 2 1.8t2.2-.6q1-.9 2-2.6m16-14q1 1.2 1.7 1.4a3 3 0 0 0 1.8 0l1 2.8q-1.6.9-3 .9t-2.8-1q.3 4-3.4 6.8a7 7 0 0 1-5.5 1.7 7 7 0 0 1-4.6-2.9q-2.1-3-1.2-6 .9-3.3 4.8-6.1l2.9-2.2-1-1.3q-1.5-2-3-2.1-1.6-.2-3.6 1.3t-4.3 4.7l-2.5-1.8q2.5-3.8 5.4-6 3.3-2.4 6.1-2t5 3.3Zm-5.8 8q2.8-2 2.2-6.2l-3.1-4.2-2.4 1.8q-5.2 3.7-2.4 7.6 1.3 1.6 2.7 1.9t3-1M227 815.8l3.3 2.6-20.3 13.4-3.8-3 7.8-23 3.5 2.6-7.2 19.1ZM241 826q4 3 4 7.2.1 4.1-3.2 8.6-2.2 2.8-4.9 4.2a10 10 0 0 1-5.4 1.2 10 10 0 0 1-5.3-2.2 9 9 0 0 1-4-7.2q0-4.2 3.3-8.6 2.1-2.8 4.8-4.2t5.4-1.2q2.8.2 5.3 2.2m-2 2.5q-4.7-3.6-10 3.4-5.5 6.9-.8 10.6t10.1-3.4q5.4-6.9.8-10.6m22.3 13.1q3.7 3 4 7.2 0 4.2-3.3 8.6-2.1 2.9-4.9 4.3a10 10 0 0 1-5.4 1.2 10 10 0 0 1-5.2-2.2 9 9 0 0 1-4-7.2q-.2-4.2 3.2-8.6 2.2-2.9 4.8-4.3 2.7-1.4 5.4-1.2 2.8.4 5.4 2.2m-2 2.6q-4.8-3.6-10.2 3.3t-.7 10.6 10.2-3.3q5.3-7 .7-10.6m23.2 14q1 .7 1.7 1.5l-3 2.7-1.5-1.5a4 4 0 0 0-3.6-.8q-2.1.4-4.7 2.6l-8 10.4-3.2-2.5 14-18.2 2.8 2.1-2.5 4q2.3-1.5 4.3-1.6 2 0 3.7 1.2M670.4 502.4q0 3-1.8 4.8a8 8 0 0 1-5.5 2q-2.2 0-4-.7a6 6 0 0 1-2.7-2q-1-1.5-1-3.5-.3-3 1.7-4.8a8 8 0 0 1 5.5-2q2.2 0 4 .7a6 6 0 0 1 2.7 2.1q1 1.4 1 3.4m-2 .1q-.1-3.7-5.7-3.5t-5.4 4q.1 3.7 5.7 3.4 5.6-.1 5.4-3.9m2.7 17.1q0 2.7-1.8 4.1-2 1.4-5.5 1.5-3.4.2-5.5-1.2a5 5 0 0 1-2.3-4.1q0-2.4 1.5-3.8l-6.8.2-.4-2.5 20.2-.8v2.2l-1.9.2q1.2.7 1.8 1.9.6 1 .7 2.3m-13-.4q.1 3.6 5.6 3.3 5.5-.2 5.4-3.4 0-1.1-.7-2a6 6 0 0 0-1.7-1.4l-7 .3a4 4 0 0 0-1.7 3.2m15.1 20.9-2.2.8q-.4-.9-.4-1.8l-.2-2.4q-1 2.6-3.6 2.7-2.1 0-3.5-1.3-1.5-1.5-1.6-4 0-1 .2-1.8-.1-.4-.6-.5-.4-.3-.7-.2-1.2 0-1.1 2v2.2a6 6 0 0 1-.4 2.6q-.4 1.2-1.3 1.8t-2 .7q-2.1 0-3.3-1.6a9 9 0 0 1-1.4-5q0-2.2.3-3.7.5-1.3 1.4-2t2.4-.6l.1 2.3q-.9 0-1.3.3-.6.5-.8 1.2-.2.9-.1 2.5 0 2.2.7 3.2t1.7.9q1 0 1.5-.8t.4-2.2V533q-.1-1.8.6-2.8t2-1q.6 0 1.3.3.8.4 1.2 1.2.6-1.3 1.6-2t2.3-.6a5 5 0 0 1 4.5 2.5q.7 1.2.8 2.8a21 21 0 0 0 .7 4.7zm-3.3-6.5q0-1.5-1-2.2t-2.4-.7q-1.5 0-2.3 1-1 .7-.8 2.2 0 1.5 1 2.2.8.8 2.4.7 3.2 0 3-3.2m-4.5 21h-1.3l-.3-9.2q-2.4.3-3.5 1.4-1 1-1 2.7a6 6 0 0 0 1.4 3.7l-1.4 1.2a8 8 0 0 1-2-5q-.1-3 1.7-4.8a8 8 0 0 1 5.4-1.9q2.2 0 4 .6 1.6.5 2.8 2 1 1.3 1 3 .3 3-1.6 4.6a8 8 0 0 1-5.2 1.7m.5-2.5h.2q2.1 0 3.2-1 1-.9 1-2.6 0-3-4.7-3.1Zm.1 17.4h-1.2l-.4-9.2q-2.4.3-3.5 1.4-1 1-1 2.7a6 6 0 0 0 1.4 3.7l-1.4 1.1a8 8 0 0 1-2-5q-.1-3 1.7-4.7a8 8 0 0 1 5.4-1.9q2.2 0 4 .6t2.8 2q1 1.3 1.1 3 0 3-1.7 4.6a8 8 0 0 1-5.2 1.7m.5-2.5h.2q2.1 0 3.2-1 1-1 1-2.6 0-3-4.7-3.2ZM690.6 448.8q2.3-.4 3.8.8t2 3.6l1.9 12.3-3 .4-1.9-11.8q-.3-1.8-1-2.5-.9-.6-2.2-.4a4 4 0 0 0-2.3 1.1q-.9 1-1.6 2.6l2 12.1-3 .5-2.7-17.1 2.5-.4.7 2.5q.7-1.6 2-2.5a6 6 0 0 1 2.8-1.2m25.2 4.7.1 1.5-10.9 1.7q.7 2.8 2.1 4 1.5 1 3.4.8l2.2-.8q1-.5 2-1.4l1.6 1.6a10 10 0 0 1-5.7 3 7 7 0 0 1-5.9-1.4 10 10 0 0 1-3-6.2q-.4-2.6.1-4.8t2-3.6 3.6-1.8q3.4-.5 5.6 1.4a10 10 0 0 1 2.8 6m-3.1-.3v-.2q-.4-2.4-1.6-3.7-1.3-1-3.3-.8-3.6.6-3.1 6Zm20.7-2.5.2 1.5-10.9 1.7q.6 2.8 2 4 1.5 1 3.5.8l2.2-.7q1-.5 2-1.5l1.6 1.6a10 10 0 0 1-5.7 3 7 7 0 0 1-5.9-1.4 10 10 0 0 1-3-6.1q-.4-2.7.1-4.9.5-2.1 2-3.6 1.4-1.4 3.6-1.7 3.4-.6 5.6 1.4a10 10 0 0 1 2.7 5.9m-3-.2v-.2q-.4-2.6-1.7-3.7-1.1-1.1-3.2-.9-3.6.6-3.1 6Zm23.7-11.6q2.1-.4 3.5.8 1.5 1.2 1.9 3.6l2 12.3-3 .5-2-11.9q-.4-3.3-2.8-2.9-1.4.2-2 1-.8 1-1.6 2.6l2 12.2-3 .4-2-11.8q-.4-3.3-2.8-3-1.4.3-2.1 1.1-.7 1-1.5 2.6l1.9 12.1-3 .5-2.7-17 2.6-.5.7 2.5q1.4-3.2 4.4-3.7 1.6-.2 2.9.4t2 2a8 8 0 0 1 1.8-2.6q1-1 2.8-1.2M79.5 457.6l-1.1 2.3a7 7 0 0 1-3.5-2.8 5 5 0 0 1-1-4q.5-1.8 2.6-3.4l9.7-6.5-2-2.8 2.2-1.4 1.9 2.8 3.6-2.4 2.2 2.5-4 2.7 2.6 3.8-2.3 1L88 446l-9.5 6.4q-1.2.9-1.5 1.7-.2.8.5 1.8t2 1.7m16.7 12-1.5 1-6.9-10.2q-2.4 2-3 3.9-.4 2 .8 3.8.8 1.2 1.8 1.9 1 .8 2.4 1.3l-.8 2.3q-3.7-1.2-5.8-4.2a8 8 0 0 1-1.3-6.6q1-3.4 4.7-6 2.5-1.6 5-2.1 2.4-.5 4.5.3a7 7 0 0 1 3.5 2.8q2.1 3.1 1.2 6.2t-4.6 5.6m-1.3-3.2h.2a7 7 0 0 0 3-3.4q.6-1.8-.7-3.7-2.2-3.4-7.5-.3Zm17.2 9.9q1.5 2.1 1 4.2a6 6 0 0 1-2.8 3.7L99 491.9 97 489l11-7.4q1.8-1.2 2-2.3.3-1-.6-2.3a4 4 0 0 0-2.2-1.8 9 9 0 0 0-3.3-.4l-11.3 7.6-1.9-2.7 16-10.8 1.6 2.4-2.2 1.8q1.8 0 3.4.8t2.6 2.3m9.8 14.5q1 1.6 1.5 3.2t.3 3.4h-2.5q0-1.6-.4-2.7-.3-1.2-1-2.3-1-1.4-2-1.8-1.2-.4-2.1.3t-1 1.7q0 1.2.7 3.4 1.1 3 .9 5.2-.3 2.1-2.3 3.4a5 5 0 0 1-4.8.6q-2.5-.9-4.3-3.6a11 11 0 0 1-2-7.4l2.8.3q-.3 3.1 1.4 5.6 1 1.5 2.4 2 1.2.4 2.4-.3.8-.4 1-1.2.3-.6.2-1.7-.2-1-.9-3-1-3-.6-4.8.3-2 2-3 1.3-.9 2.8-.9t3 1a9 9 0 0 1 2.5 2.6m14.1 21.8-19.6 5.4q-3.4 1-6.2.4a10 10 0 0 1-5.1-3.5l2-1.8a10 10 0 0 0 2.4 2q1.2.6 2.3.6 1.2.1 3-.4l-.7-1 12.3-16 2 3-11 13.6 16.7-5.2Zm0 0"/><path fill="#00b3ff" d="M495.7 676.8q2.7.9 3.6 2.9 1 2 .1 4.7l-4.3 13.9-3.4-1.1 4.2-13.3q.7-2 .2-3.2-.6-1-2-1.5-1.5-.4-3 0t-3 1.8l-4.3 13.7-3.4-1 6.1-19.3 2.9.9-.6 3a8 8 0 0 1 3.3-1.7q1.8-.4 3.6.2m19.6 6.2q4 1.2 5.4 4.7 1.5 3.4 0 8-1 3-2.7 5a8 8 0 0 1-4.1 2.6q-2.4.6-5-.2a8 8 0 0 1-5.5-4.7q-1.3-3.5 0-8 1-3 2.8-5a8 8 0 0 1 4-2.6q2.4-.7 5 .2m-.9 2.7q-5-1.5-7.3 5.8t2.7 8.9q5 1.4 7.3-5.8 2.3-7.4-2.7-9m29.2 6.7-6.1 19.2-2.9-.9.7-3a8 8 0 0 1-3.3 1.7q-1.7.4-3.8-.2a5 5 0 0 1-3.4-2.8q-1-2 0-4.8l4.3-13.8 3.3 1-4.2 13.5q-.6 2-.2 3 .5 1 2 1.5 2.8.9 5.9-1.8l4.3-13.7Zm0 0"/><path fill="#23e75d" d="m176.6 163 1.7 3.7-31.4 9.6-1.2-3.8Zm-5 15 1.2 4.2-12.2-5-9.5 12.7-1.4-4.6L159 173ZM153 198.4q-.6-2.2.3-3.8t3.2-2.3l26.5-8.2 1.7 3.7-27 8.3q-.9.3-1.2.7-.3.5 0 1.2 0 .8.6 1.3l-2.4 1.9a7 7 0 0 1-1.7-2.8m12.7 21q-1.3.3-1.9 1a3 3 0 0 0-.5 1.7h-3q-.3-2 .2-3.1.4-1.3 1.8-2.3a8 8 0 0 1-5.3-5.5q-1-3.3.3-5.8a7 7 0 0 1 4.2-3.3q3.5-1 6.2.9 2.5 1.8 4 6.5l1 3.4 1.7-.5q2.4-.7 3-2.1t0-3.8q-.8-2.4-3-5.6l2.5-1.8q2.7 3.6 3.8 7.1 1.2 4-.1 6.4-1.3 2.6-4.8 3.6Zm-5.6-8.3q1 3.3 5 4.2l5.1-1.6-.8-2.9q-2-6-6.4-4.7-2.1.6-2.7 1.9t-.2 3.1m27.3 16.8q.6 2.3.6 4.2t-.8 4l-3-.9q.6-1.8.6-3.3t-.4-3q-.6-1.8-1.7-2.7t-2.5-.4-1.7 1.6q-.5 1.4-.4 4.2a14 14 0 0 1-.8 6.3q-1 2.2-3.8 3.1a6 6 0 0 1-5.7-1 11 11 0 0 1-3.7-5.6q-1.5-5 .4-9.2l3 1.3q-1.4 3.5-.3 6.8a6 6 0 0 0 2 3.2 3 3 0 0 0 2.8.5q1.2-.3 1.7-1a4 4 0 0 0 .7-2q.2-1.2.1-3.6-.2-3.8 1-5.8a6 6 0 0 1 3.4-2.8q1.7-.6 3.4 0a7 7 0 0 1 3 2.2q1.4 1.5 2 3.9M68 297.3l3 1.6-9.7 16.7-2.9-1.7Zm6.1-7.2q.9.6 1.2 1.4.2.9-.3 1.8t-1.4 1q-.7.3-1.8-.3-.9-.5-1-1.3-.4-.9.2-1.8a2.2 2.2 0 0 1 3.1-.8m11 16.5q2.1 1.3 2.7 3.4a6 6 0 0 1-1 4.5l-6.8 12-3-1.8 6.8-11.5q1-1.7.7-2.9-.1-1-1.5-1.8t-2.8-.6q-1.5 0-3.1 1l-6.9 11.8-2.9-1.6 9.7-16.7 2.5 1.5-1.2 2.6q1.5-.9 3.4-.8t3.3.9m19.5 11.9 3 1.8-15.2 13.3-3.5-2 3.9-20 3.1 1.8-3.8 16.6Zm12.8 7a8 8 0 0 1 4.1 5.4 11 11 0 0 1-1.7 7.5q-1.5 2.5-3.5 4a8 8 0 0 1-4.4 1.6q-2.2 0-4.6-1.2a8 8 0 0 1-4-5.5 11 11 0 0 1 1.6-7.5q1.5-2.5 3.6-4a8 8 0 0 1 4.3-1.6q2.2 0 4.6 1.2m-1.3 2.3q-4.4-2.5-8 3.8-3.7 6.4.6 8.9 4.2 2.4 8-4 3.6-6.2-.6-8.7m25.7 12.3-9.7 16.6-2.5-1.5 1.3-2.7q-1.8 1-3.5 1t-3.4-1q-2.1-1.3-2.6-3.3-.5-2.1 1-4.5l6.8-12 3 1.8-6.8 11.6q-1 1.7-.8 2.7t1.5 1.9q2.5 1.5 5.9-.5l6.9-11.8Zm0 0"/><path fill="#ff3c00" d="m317 501.5-1.7.7-5.7-11.5q-2.9 1.6-3.7 3.6-.7 2 .3 4.1.6 1.3 1.6 2.2t2.3 1.7l-1.2 2.3q-3.7-1.7-5.4-5.2a8 8 0 0 1-.4-7q1.4-3.4 5.7-5.5 2.8-1.5 5.5-1.6 2.6-.2 4.7.9 2 1.1 3.2 3.4a8 8 0 0 1 .4 6.7q-1.5 3-5.7 5.2m-.9-3.5.2-.1q2.7-1.5 3.6-3.1.9-1.8-.2-3.9-2-3.9-7.8-1.4Zm10.1 22.2-1.6.7-5.7-11.5q-3 1.6-3.7 3.7-.7 2 .3 4a8 8 0 0 0 3.9 4l-1.2 2.2a11 11 0 0 1-5.4-5.2 8 8 0 0 1-.5-7q1.5-3.4 5.8-5.5 2.8-1.5 5.4-1.6t4.7 1 3.2 3.3a8 8 0 0 1 .4 6.7q-1.4 3-5.6 5.2m-.8-3.5.2-.1q2.7-1.4 3.6-3.1t-.2-3.9q-2-3.9-7.8-1.4Zm16.4 12.6q1.3 2.5.5 4.6a6 6 0 0 1-3.4 3.4l-13 6.4-1.5-3.1 12.5-6.2q1.9-1 2.4-2.1t-.3-2.5-2-2.2-3.5-.8l-12.8 6.3-1.6-3.1 18.1-9 1.4 2.7-2.6 1.6a8 8 0 0 1 3.5 1.3q1.5 1 2.3 2.7m0 0"/><path fill="#23e75d" d="M160.2 636.7a10 10 0 0 1-1.4 6l-2-1.1.9-2.3q.2-1.1.1-2.3a4 4 0 0 0-.8-2.3 2 2 0 0 0-1.7-.7 2 2 0 0 0-1.6 1q-.4.8-.9 3-.5 3-1.5 4.4-1.2 1.5-3.3 1.7-2.5.3-4-1.6a9 9 0 0 1-1.8-4.7q-.4-3.9 1.6-6.7l2 1.4a8 8 0 0 0-1.2 5q0 1.7.9 2.7t2 .8q.8 0 1.4-.5t.8-1.3q.4-.9.7-2.7a9 9 0 0 1 1.6-4.1q1-1.4 3-1.5a4 4 0 0 1 2.4.6q1.2.6 2 2 .6 1.5.8 3.2M147 656l-2 1.4q-1.2-1.7-1.4-3.8-.3-2.2 1-3.5 1.1-1.4 3.4-1.6l10.4-.9-.2-3 2.3-.2.3 3 3.9-.3.6 3-4.3.3.4 4H159l-.3-3.8-10.3 1q-1.3 0-1.9.6t-.4 1.6q0 1 .9 2.2m15.8 9.4a7 7 0 0 1-2 5.9 10 10 0 0 1-6.4 2.6q-2.6.2-4.8-.5a7 7 0 0 1-3.4-2.4q-1.2-1.5-1.5-4a7 7 0 0 1 2-5.9 10 10 0 0 1 6.4-2.6q2.5-.2 4.8.5 2 .8 3.4 2.4 1.2 1.5 1.5 4m-2.5.3q-.3-4.5-7-4-6.5.7-6.1 5 .3 4.5 7 4 6.5-.6 6.1-5m4.3 20.3q.3 3.3-2 5a12 12 0 0 1-6.5 2.2q-4 .3-6.7-1.2a6 6 0 0 1-2.9-4.8q-.2-3 1.6-4.7l-8.2.7-.6-3 24.2-2.1.2 2.6-2.3.4q1.5.9 2.2 2.1a6 6 0 0 1 1 2.8m-15.7.2q.4 4.3 7 3.7t6.2-4.5q0-1.2-1-2.2a8 8 0 0 0-2-1.7l-8.4.8a5 5 0 0 0-1.8 4M246.4 271l-1.3.1-1.1-9.1q-2.4.4-3.4 1.6t-.7 2.8a6 6 0 0 0 1.7 3.6l-1.4 1.3a8 8 0 0 1-2.4-4.8q-.3-3 1.4-5a8 8 0 0 1 5.1-2.3q2.3-.2 4 .2 2 .6 3 1.8 1.2 1.2 1.4 3 .4 2.8-1.3 4.6a8 8 0 0 1-5 2.2m.3-2.5h.1q2.1-.3 3.2-1.3 1-1 .7-2.7-.3-3-4.9-2.7Zm7 5.6.3 2.5-14.3 1.8-.3-2.4Zm7 .4q0 .8-.3 1.3-.4.6-1.2.6-.8.2-1.3-.3t-.6-1.2q0-.8.3-1.3.5-.6 1.1-.7.8 0 1.3.4t.7 1.2m-4.9 14a4 4 0 0 1-.8 3.2q-1 1.2-3 1.5l-10.3 1.3-.3-2.5 10-1.3q1.4-.2 2-.8.5-.7.4-1.8-.1-1-1-2-.6-.6-2-1.3l-10.2 1.3-.3-2.5 14.3-1.8.3 2.1-2 .5q1 .6 2 1.7a5 5 0 0 1 1 2.4m8 17v2.5l-20 2.6-.3-2.2 2-.5q-1.2-.6-2-1.6t-.9-2.2q-.3-2.6 1.5-4.3t5.2-2.1q2.2-.3 4 .2a6 6 0 0 1 3 1.6q1.1 1.1 1.3 2.9.3 2.1-1.3 4Zm-19.1-1.2q0 1.1.8 2 .6.6 1.7 1.3l7-.9q.9-.8 1.2-1.7.5-.9.3-1.8a3 3 0 0 0-1.7-2.4q-1.5-.7-4.3-.4a8 8 0 0 0-4 1.4q-1.2 1-1 2.5m8.7 21.3h-1.3l-1.2-9q-2.2.4-3.3 1.6t-.7 2.8q0 1 .5 1.9l1.2 1.7-1.4 1.2a8 8 0 0 1-2.4-4.7q-.4-3 1.4-5a8 8 0 0 1 5.1-2.3q2.2-.3 4 .2 2 .6 3 1.7 1.1 1.3 1.4 3 .3 3-1.3 4.7a8 8 0 0 1-5 2.2m.2-2.6h.2q2.1-.3 3.1-1.3t.8-2.6q-.3-3-5-2.8Zm0 0"/><path fill="#00b3ff" d="M389.5 303.7a4 4 0 0 1-.7-3.3q.4-1.5 2.1-2.7l20.6-13 2.2 2.8-20.8 13.2q-.7.5-.9.9 0 .4.2 1l1 1-1.7 2a6 6 0 0 1-2-2m29.3 7.7-17 10.8-1.7-2.6 2.5-1.9q-2.1 0-3.7-.7-1.6-.9-2.7-2.6-1.4-2.3-.8-4.4.5-2 3-3.7l12.2-7.7 2 3-12 7.5q-1.7 1-2 2.2-.4 1 .5 2.4 1.6 2.6 5.6 2.4l12.2-7.7Zm7.2 10.5q1 1.8 1.5 3.5t.2 3.5h-2.6q0-1.6-.4-3a8 8 0 0 0-1-2.4q-1-1.5-2-1.9-1.2-.4-2.2.2t-1.1 1.8q0 1.2.6 3.6 1.2 3.3.8 5.5a5 5 0 0 1-2.5 3.5 5 5 0 0 1-5 .5q-2.7-1-4.4-4a11 11 0 0 1-1.9-7.8l2.8.5q-.2 3.1 1.4 5.8a5 5 0 0 0 2.4 2.2q1.4.6 2.5-.2a3 3 0 0 0 1.2-1.2q.3-.7.2-1.9l-.8-3q-.9-3.3-.6-5.2t2.3-3.1q1.3-1 3-.8 1.5.1 3 1.1 1.5 1.1 2.6 2.8M572.3 560.9q4.2.3 6.4 3.3 2.1 3 1.7 7.9-.2 3-1.4 5.4-1.3 2.4-3.4 3.5t-5 1q-4.2-.4-6.3-3.4-2.2-3-1.8-7.9.3-3 1.5-5.4 1.3-2.3 3.4-3.5 2-1 5-.9m-.2 2.8q-5.2-.4-5.8 7.3-.6 7.6 4.6 8.1t5.8-7.3-4.6-8m24.4-1q2.8.3 4.2 2 1.4 1.8 1.2 4.7l-1.1 14.4-3.5-.3 1-14q.3-2-.5-3t-2.3-1q-1.5-.1-3 .6-1.2.9-2.4 2.5L589 583l-3.5-.3 1.5-20.1 3 .2.1 3q1.2-1.5 2.9-2.3t3.5-.6m18.4 1.5q2 .2 3.7.8 1.5.8 3 2l-1.7 2.1-2.5-1.5a8 8 0 0 0-2.6-.6q-1.6-.2-2.8.5-1 .6-1.1 1.8 0 1.2.8 2 .9.7 3.3 1.6 3.3 1 4.8 2.7a5 5 0 0 1 1.4 4q-.2 3-2.7 4.5a10 10 0 0 1-5.8 1q-4.5-.3-7.4-3.1l2-2a9 9 0 0 0 5.6 2.4q2 0 3.2-.6t1.3-2.2a3 3 0 0 0-.3-1.7q-.4-.6-1.3-1.2t-3-1.2q-3-1-4.4-2.6-1.4-1.5-1.2-3.7.1-1.5 1.2-2.8t2.7-1.8q1.8-.6 3.8-.4M946.7 453.5q1.4-2.4 3.1-3.9a15 15 0 0 1 4.1-2.4l1.6 3.2q-2 1-3.3 2.1t-2.2 2.8a6 6 0 0 0-1 3.6 3 3 0 0 0 1.5 2.4 3 3 0 0 0 2.8.2q1.5-.6 3.9-3 3.1-3.3 6-4.2 2.8-1 5.7.8a7 7 0 0 1 3.7 5.7q.2 3.7-2 7.6a15 15 0 0 1-8.2 7l-1.2-3.7q4-1.6 6-5.2 1.5-2.2 1.2-4.2a4 4 0 0 0-1.7-2.8q-1.2-.7-2.2-.6t-2.3.9-3.2 2.8q-3.1 3-5.7 3.8-2.7.7-5.2-.8-1.8-1-2.6-3a8 8 0 0 1-.5-4.3q.3-2.4 1.7-4.8m8.9-14 2.3-4 23.3 13.6-2.4 4Zm-10-8.5q.7-1.2 2-1.6 1.2-.2 2.4.4a3 3 0 0 1 1.5 2q.3 1.2-.4 2.5-.8 1.2-2 1.5a3 3 0 0 1-2.4-.3 3 3 0 0 1-1.5-2q-.3-1.2.4-2.5m42.7-2.6h3.6q.1 3.2-1.5 6.1a7 7 0 0 1-4.4 3.6q-2.6.7-5.9-1.2l-14-8.2-2.4 4-3-1.8 2.3-4-5.2-3.1 1.8-4.3 5.8 3.3 3.2-5.5 2.9 2.3-3 5 13.8 8.2q1.8 1 3 .8 1.2 0 2-1.6 1-1.4 1-3.6m0 0"/><path fill="#23e75d" d="M672 824.2q3.4 0 5 2.4 1.5 2.3 1.5 6.6a11 11 0 0 1-1.7 6.6 6 6 0 0 1-5 2.5q-3 0-4.6-2v8.3l-3 .3-.1-24.3h2.6l.2 2.4q1-1.5 2.3-2a6 6 0 0 1 2.8-.8m-1 15.7q4.3 0 4.2-6.7 0-6.6-3.9-6.6a4 4 0 0 0-2.3.8q-1 .7-1.9 2v8.4q.7 1 1.7 1.5t2.2.6m16.1 2.3q-1.6 0-2.6-1t-1-2.8v-20.8l3-.4v21.2q0 .6.3 1 .2.3.8.3t1.1-.2l.8 2.1a5 5 0 0 1-2.4.6m17.8-4.5q0 1 .4 1.6.4.5 1 .7l-.6 2.1q-1.4 0-2.1-.7-.9-.6-1.3-1.8a6 6 0 0 1-5.1 2.6q-2.5 0-4-1.4a5 5 0 0 1-1.6-3.8 5 5 0 0 1 2-4.3q2-1.4 5.6-1.5h2.7V830q0-1.9-1-2.7-.8-.8-2.6-.7-2 0-4.7.9l-.8-2.2q3.3-1.2 6-1.2 3 0 4.6 1.5t1.5 4.2Zm-7 2.2q2.5 0 4-2.7v-4h-2.3q-4.8 0-4.7 3.6 0 1.5.7 2.3.8.8 2.3.8m20.8-1 1.2 2a7 7 0 0 1-3.9 1.2q-2.1 0-3.4-1.3-1.2-1.2-1.3-3.6v-10.5h-3v-2.3h3v-3.9l3-.4v4.3h4.1l-.3 2.3h-3.8V837q0 1.4.5 2t1.6.6a5 5 0 0 0 2.3-.7m0 0"/><path fill="#ff3b00" d="M682.8 688.7q.7 1.2 1.4 1.5.8.3 1.8.2l.6 2.9q-1.6.6-3 .5t-2.6-1.3q-.3 4.2-4.3 6.4a7 7 0 0 1-5.6 1 7 7 0 0 1-4.2-3.3 7 7 0 0 1-.5-6.2q1.3-3 5.5-5.5l3-1.7-.8-1.5q-1.2-2.1-2.8-2.5t-3.6 1q-2.2 1.2-4.8 4.1l-2.3-2q3-3.6 6-5.4 3.6-2 6.3-1.3 2.8.7 4.6 4Zm-6.8 7.2q3-1.8 3-5.8l-2.7-4.6-2.6 1.5q-5.6 3.1-3.2 7.3 1 1.7 2.4 2.1 1.5.4 3.1-.5m10.3-30.3q2-1.2 4-1.5t4-.1l-.1 3q-2 0-3.4.2-1.5.3-2.8 1.1a5 5 0 0 0-2.3 2.3q-.5 1.3.1 2.5.8 1.2 2 1.3 1.4.2 4.2-.6 3.8-1.1 6.3-.6 2.5.4 3.9 3 1.7 3 .3 5.8-1.5 3-4.7 4.8-4.5 2.6-9 1.8l.6-3.2q3.6.4 6.7-1.3a6 6 0 0 0 2.7-2.7q.6-1.5-.2-2.8-.6-1-1.3-1.5a4 4 0 0 0-2.1-.2q-1.3 0-3.6.7-3.6 1-5.9.4a6 6 0 0 1-3.5-2.7q-.9-1.6-.7-3.4t1.5-3.5q1.3-1.6 3.3-2.8M708.4 557.3q2.8 1.5 3.5 4 .6 2.6-1 5.4l-8 14.5-3.5-2 7.7-14q1.1-2.1.9-3.4-.3-1.5-2-2.2-1.5-.9-3.3-.7t-3.7 1.4l-8 14.3-3.4-1.9 11-20.2 3.1 1.7-1.3 3.1q2-1 4-1 2.1 0 4 1m17.8 30.6q-.6 1.2-.6 2 .2.9.8 1.6l-2.1 2q-1.5-1-2-2.3-.7-1.1-.3-2.9a8 8 0 0 1-7.7-.3 7 7 0 0 1-3.8-4.3q-.8-2.6.7-5.3a7 7 0 0 1 5-3.7q3.3-.4 7.6 2l3 1.6.9-1.5q1.2-2.1.7-3.6t-2.7-2.7-6-2l.5-3q4.5.7 7.7 2.5 3.6 2 4.4 4.7t-1 6Zm-9.6-2q3 1.6 6.4-.6l2.6-4.6-2.7-1.5q-5.6-3-7.8 1-1 1.9-.7 3.3.4 1.5 2.2 2.3M436.6 565.7q1.2 2 1.5 4t.1 4.1l-3-.2q0-2-.2-3.3-.3-1.5-1.1-2.9-1-1.7-2.2-2.3t-2.5.1-1.4 2q0 1.4.6 4.1 1 3.9.5 6.3-.4 2.5-3 4-3 1.6-5.8.2-3-1.4-4.8-4.7-2.5-4.5-1.6-9l3.2.6q-.6 3.7 1.2 6.7a6 6 0 0 0 2.6 2.7q1.5.7 2.9-.1 1-.6 1.4-1.4t.3-2q0-1.4-.7-3.6-1-3.7-.4-6a6 6 0 0 1 2.8-3.4q1.6-.9 3.4-.7t3.4 1.5 2.8 3.3m11.3 19.9a9 9 0 0 1 1 8.1q-1.6 4-6.4 6.7-3 1.8-6.1 2-3 .5-5.5-.9-2.5-1.2-4-4a9 9 0 0 1-1-8.2q1.5-4.1 6.4-6.7 3-1.9 6.1-2 3-.4 5.4.9t4.1 4m-2.8 1.6q-3-5.2-10.7-.9-7.5 4.4-4.7 9.6 3 5.1 10.6.8 7.7-4.4 4.8-9.5m0 0"/><path fill="#00b3ff" d="M722 288.3q.5.9.7 1.9l-3.4.9-.5-1.7a4 4 0 0 0-2.6-2.1q-1.8-.4-4.7.3l-10.3 5-1.6-3.1 18.2-8.9 1.3 2.7-3.5 2.1q2.4-.3 4 .5t2.4 2.4m6 12.2q2 3.8.4 7.2-1.5 3.3-5.9 5.5-2.9 1.4-5.4 1.4-2.7 0-4.7-1.1t-3.4-3.8a8 8 0 0 1-.3-7.2q1.6-3.3 5.8-5.5 2.9-1.4 5.5-1.5 2.6 0 4.7 1.2t3.3 3.8m-2.5 1.2q-2.3-4.6-9.3-1.3-6.9 3.5-4.6 8 2.3 4.8 9.2 1.4 7-3.5 4.7-8m-8.2 25a4 4 0 0 1-.3-3.3q.6-1.6 2.5-2.5l21.8-10.7 2 3L721 324l-1 .8q-.2.5.1 1 .3.7.8 1.2l-1.8 1.9a6 6 0 0 1-1.9-2.2M374.6 722.3l4.7 1.5-16.8 23-5.4-1.8-.8-28.4 5 1.5-.2 23.8Zm9.8 3.1 4.5 1.4-8 25.7-4.5-1.4Zm6.1-11.6q1.5.4 2 1.6t.2 2.5a3 3 0 0 1-1.5 1.9q-1.2.5-2.6 0-1.5-.3-2-1.5a3 3 0 0 1-.2-2.4q.4-1.3 1.6-2 1.2-.5 2.5-.1m19 18.9 2.5 1-2.2 4.2-2.2-1a5 5 0 0 0-4.4.6q-2 1.2-4 4.7l-4.6 14.6-4.5-1.4 8-25.6 4 1.2-1.3 5.3q2-2.5 4.2-3.4 2.2-1 4.5-.2m0 0"/><path fill="#23e75d" d="M733 847h3l-2.3 24.5-3-.3Zm8.9 7.9 3.4.3-7.1 7 6.1 10.3-3.5-.4-6-10Zm19.4 10q0 .7-.2 1.5l-11-1q0 2.8 1 4.3 1.2 1.4 3.1 1.7 1.4 0 2.4-.2t2.3-1l1.1 2q-3 2-6.2 1.6a7 7 0 0 1-5.4-3 10 10 0 0 1-1.4-6.6q.3-2.7 1.3-4.6a8 8 0 0 1 2.8-3q1.8-1 4-.9 3.4.4 5 2.8t1.2 6.4m-2.9-1v-.2q.3-2.5-.6-4-.9-1.3-3-1.6-3.6-.3-4.5 5Zm16-6.3q1 0 1.7.3l-.8 3q-.7-.4-1.5-.4-1.6-.2-2.7 1-1.1 1-1.9 3.4l-1 9.9-3-.3 1.7-17.2 2.6.2v3.5a7 7 0 0 1 2-2.7q1.4-.9 3-.7m13.3 1.2q2.3.3 3.5 1.8t1 4l-1.2 12.3-3-.3 1.1-11.9q.2-1.8-.4-2.6-.5-.9-2-1a4 4 0 0 0-2.5.6q-1.1.6-2.2 2L781 876l-3-.3 1.6-17.3 2.6.3v2.6q1-1.3 2.5-2t3-.5m0 0"/><path fill="#00b3ff" d="m306.6 324.1 2.6-2.6 9.4 19.1-3 3-19.2-9.4 2.7-2.7L315 340Zm11.4-12 1.5-1.2 2 2.9-1.4 1q-1.4 1.4-1.2 3.2t1.8 4.3l8 8.2-2.4 2.5-14.2-14.4 2.1-2 3.1 2.6q-1-2.2-.8-4t1.5-3m25.1-2.5q.9 1 1.6 1 .8.1 1.5-.2l1.2 2.3q-1.3 1-2.4 1.1a4 4 0 0 1-2.6-.5q.8 3.6-2.1 6.4a6 6 0 0 1-4.5 2.1q-2.4 0-4.4-1.9a6 6 0 0 1-1.8-5.1q.4-3 3.5-5.9l2.2-2.2-1.1-1q-1.5-1.5-2.9-1.5t-2.9 1.6-3.1 4.6l-2.4-1.2q1.6-3.6 4-5.9 2.4-2.5 5-2.5 2.4 0 4.7 2.3Zm-4 7.6q2-2 1-5.5l-3.2-3.3-1.9 1.8q-4 4-1 7 1.3 1.2 2.5 1.2 1.3 0 2.5-1.1m0 0"/><path fill="#23e75d" d="M720.2 511.6q.8.3 1.5.8L720 515l-1.3-.7q-1.5-.6-2.8 0-1.4.8-2.9 2.9l-3.8 9.1-2.7-1.2 6.6-16 2.4 1-1 3.4q1.3-1.5 2.8-2t2.9.2m4.6 2.3 2.8 1.2-6.7 16-2.7-1.2Zm4.6-7q.8.3 1.2 1 .3.9 0 1.7a2 2 0 0 1-1.2 1q-.7.5-1.6 0a2 2 0 0 1-1.2-1.1 2 2 0 0 1 0-1.6 2 2 0 0 1 2.8-1m5.4 26.9.3 2.3q-2 .4-4-.4a5 5 0 0 1-2.7-2.5q-.7-1.6.2-3.9l4-9.6-2.8-1.2 1-2.1 2.7 1.2 1.5-3.7 3 .9-1.7 4 3.8 1.5-1.2 2-3.5-1.4-4 9.5q-.5 1.2-.2 2 0 .8 1.2 1.1a5 5 0 0 0 2.4.3m14-10.3q1.6.6 2.7 1.6t2 2.4l-2 1.3-1.6-1.9-2-1.2a4 4 0 0 0-2.3-.3 2 2 0 0 0-1.5 1.2 2 2 0 0 0 .1 1.8 9 9 0 0 0 2.3 2.2q2.4 1.8 3.2 3.5.9 1.5 0 3.7a4 4 0 0 1-3.3 2.8q-2.4.4-5-.6a10 10 0 0 1-5.2-4.6l2.2-1q1.4 2.3 3.9 3.3 1.5.7 2.8.4t1.6-1.4q.3-.8.2-1.4a3 3 0 0 0-.8-1.4q-.5-.7-2-1.8a9 9 0 0 1-3-3.3q-.6-1.6.1-3.3a4 4 0 0 1 1.7-2q1-.7 2.7-.7 1.4 0 3.2.7m0 0"/><path fill="#ff3b00" d="M356.1 630.4q1.5 4.6-.8 8.1-2.2 3.6-7.6 5.3-3.4 1.1-6.4.7t-5-2.1a10 10 0 0 1-3.2-4.8q-1.5-4.5.8-8.2t7.6-5.2q3.4-1.1 6.4-.8t5.1 2.1a10 10 0 0 1 3.1 4.9m-3 1q-2-5.8-10.3-3.1t-6.6 8.3q1.8 5.7 10.2 3 8.4-2.6 6.6-8.3m16.2 20.7q-.6-1.7-1.6-2.2t-2.6 0l-3 1 1.6 5.3-3 .5-1.6-5-19 6.1-1.3-3.8 19-6-1.2-4 3-1 1.2 4 3-1q2.9-.8 5.2.4 2.3 1.4 3.3 4.5a13 13 0 0 1 .6 5.7l-3.2-.4q.2-2.1-.4-4M179.7 821.9l-.5 2-14.4-3q-.4 3.9.8 6a6 6 0 0 0 3.9 2.6q1.5.3 3 0 1.5 0 3.3-.9l1.2 2.8a13 13 0 0 1-8.5 1.2 9 9 0 0 1-6.7-4.5 13 13 0 0 1-1-9q.8-3.6 2.4-6a10 10 0 0 1 4.1-3.7q2.4-1.2 5.3-.6 4.5.9 6.4 4.4a13 13 0 0 1 .7 8.7m-3.7-1.7v-.3q.8-3.3-.3-5.4-.9-2-3.6-2.5-4.8-.9-6.7 6Zm23-6.1q3 .6 4.4 2.8 1.3 2.1.7 5.4l-3.2 16.2-4-.8 3.1-15.6q.6-2.4-.2-3.6t-2.4-1.5a5 5 0 0 0-3.4.4q-1.5.8-3.2 2.4l-3.2 16-4-.7 4.6-22.6 3.3.6-.3 3.5q1.5-1.5 3.6-2.3 2-.6 4.1-.2m0 0"/><path fill="#00b3ff" d="m870 302 1.5 2.3a8 8 0 0 1-4.4 1.7q-2.5.1-4-1.2-1.6-1.4-1.8-4.1l-1-12.2-3.5.3-.2-2.7 3.6-.3-.4-4.5 3.5-.7.4 5 4.7-.4-.1 2.7-4.4.4.9 12q0 1.5.7 2.2.5.6 2 .5 1.1 0 2.5-1m11.2-18.3q4.3-.3 6.8 2.4 2.6 2.5 3 7.5.3 3.1-.7 5.6t-2.8 3.9a9 9 0 0 1-4.7 1.7q-4.1.3-6.8-2.3a12 12 0 0 1-3-7.5q-.2-3.2.7-5.6.9-2.5 2.8-4 2-1.4 4.7-1.7m.3 2.9q-5.2.4-4.7 8 .6 7.8 5.8 7.4t4.6-8.2-5.7-7.2m24.6 12.7 1.5 2.2a8 8 0 0 1-4.4 1.7q-2.5.3-4-1.1-1.6-1.4-1.8-4.2l-1-12.1-3.5.2-.2-2.7 3.5-.2-.3-4.6 3.5-.7.4 5 4.7-.4-.1 2.8-4.4.3.9 12q0 1.6.7 2.2.5.8 2 .6 1.1 0 2.5-1m0 0"/><path fill="#ff3b00" d="m675.2 417.8.9 4-22.5 5.1-1-4Zm11.2-.6q.2 1.3-.3 2.2t-1.8 1.2q-1 .2-2-.3t-1.2-1.8q-.3-1.2.3-2.2.5-.9 1.7-1.2 1-.2 2 .3t1.3 1.8m-6.6 18.6q.6 2.4.4 4.3a13 13 0 0 1-1.2 4l-2.8-1.2q.6-1.7.8-3.2 0-1.5-.2-3a5 5 0 0 0-1.5-2.9q-1-.9-2.4-.6-1.5.3-2 1.5t-.6 4.1q0 4-1.2 6.2a6 6 0 0 1-4 3 6 6 0 0 1-5.7-1.5 11 11 0 0 1-3.2-5.9q-1.2-5 1-9.1l2.9 1.5q-1.5 3.3-.8 6.8.6 2.3 1.8 3.3a3 3 0 0 0 2.8.7q1-.2 1.7-.8t.9-2 .3-3.6q0-3.7 1.3-5.7 1.2-2 3.7-2.6 1.8-.3 3.4.3 1.6.8 2.9 2.4 1.2 1.7 1.7 4m0 0"/></svg>